<?xml version="1.0" encoding="UTF-8" standalone="no" ?>
<svg
    version="1.0"
    xmlns="http://www.w3.org/2000/svg"
    width="100.000000pt"
    height="100.000000pt"
    viewBox="0 0 629.000000 629.000000"
>
    <g transform="translate(0.000000,629.000000) scale(0.100000,-0.100000)" fill="#f0506a" stroke="none">
        <path
            d="M2980 5013 c-193 -31 -330 -72 -475 -143 -90 -44 -142 -76 -255 -156
-93 -66 -245 -232 -315 -344 -39 -61 -95 -170 -95 -184 0 -6 -6 -23 -14 -38
-8 -15 -17 -40 -21 -57 -9 -40 -20 -47 -95 -60 -263 -46 -410 -96 -560 -189
-306 -190 -491 -450 -581 -817 -19 -74 -23 -120 -23 -255 -1 -156 5 -203 36
-315 93 -334 264 -582 520 -756 77 -53 229 -125 316 -150 154 -45 220 -53 427
-52 193 0 229 4 405 42 101 21 296 102 384 159 22 15 48 31 57 37 135 85 323
263 432 409 22 28 47 62 58 76 10 14 36 48 57 75 40 53 154 223 161 240 4 10
171 268 259 400 235 352 507 541 857 595 101 16 251 -2 400 -48 90 -28 276
-150 339 -223 90 -105 175 -265 207 -389 9 -35 14 -106 13 -195 0 -118 -4
-152 -24 -215 -55 -174 -136 -305 -280 -450 -84 -85 -206 -147 -390 -197 -71
-19 -286 -22 -360 -4 -166 39 -257 85 -463 231 -95 67 -174 64 -227 -11 -32
-44 -32 -116 1 -157 23 -29 141 -131 189 -162 12 -8 32 -22 44 -31 73 -56 261
-133 416 -171 74 -18 375 -17 450 1 390 94 661 303 810 625 46 99 62 149 92
291 16 76 21 369 8 450 -25 154 -116 385 -192 486 -41 55 -191 204 -243 241
-62 44 -182 109 -255 138 -30 12 -64 26 -75 31 -34 14 -127 40 -185 51 -99 18
-339 21 -416 4 -228 -49 -390 -130 -563 -281 -58 -51 -254 -258 -283 -300 -4
-5 -20 -26 -36 -45 -55 -68 -352 -501 -352 -514 0 -2 -22 -36 -48 -77 -27 -41
-75 -114 -107 -164 -33 -49 -64 -95 -70 -102 -5 -6 -21 -25 -34 -43 -13 -17
-51 -57 -85 -89 -214 -206 -470 -347 -731 -403 -80 -17 -323 -17 -405 1 -137
28 -334 108 -391 157 -8 8 -21 14 -27 14 -7 0 -12 5 -12 10 0 6 -5 10 -11 10
-19 0 -110 83 -154 140 -159 207 -250 577 -200 815 37 179 67 248 160 380 96
135 288 271 470 333 219 74 336 81 550 37 32 -7 186 -66 195 -75 3 -3 26 -16
53 -30 26 -13 47 -28 47 -32 0 -5 5 -8 12 -8 6 0 43 -27 83 -59 91 -75 137
-101 181 -101 82 0 134 59 134 150 0 64 -7 77 -95 168 -59 63 -195 162 -221
162 -8 0 -14 5 -14 10 0 6 -6 10 -13 10 -7 0 -31 9 -53 19 -44 21 -138 50
-199 59 -54 9 -55 28 -9 133 39 88 54 113 119 194 47 58 64 74 165 155 110 87
214 143 360 193 188 63 354 80 520 52 166 -28 254 -58 369 -127 34 -21 65 -38
67 -38 27 0 235 -219 299 -315 72 -108 88 -122 142 -131 126 -19 213 144 138
259 -142 216 -385 434 -595 533 -112 53 -258 97 -390 120 -77 13 -298 17 -360
7z"
        />
    </g>
</svg>