<?xml version="1.0" encoding="iso-8859-1"?>
<!-- Generator: Adobe Illustrator 19.0.0, SVG Export Plug-In . SVG Version: 6.00 Build 0)  -->
<svg version="1.1" id="Capa_1" xmlns="http://www.w3.org/2000/svg" xmlns:xlink="http://www.w3.org/1999/xlink" x="0px" y="0px"
	 viewBox="0 0 512 512" style="enable-background:new 0 0 512 512;" xml:space="preserve">
<circle style="fill:#FFEB50;" cx="256" cy="256" r="256"/>
<path style="fill:#F7D139;" d="M512,256c0-14.076-1.154-27.881-3.34-41.34L371.333,77.333L140.667,434.667l73.994,73.994
	C228.119,510.846,241.924,512,256,512C397.385,512,512,397.385,512,256z"/>
<rect x="140.67" y="77.33" style="fill:#333333;" width="230.67" height="357.33"/>
<rect x="255.95" y="77.33" style="fill:#1A1A1A;" width="115.38" height="357.33"/>
<rect x="168" y="105.26" style="fill:#B9EAFF;" width="176" height="141"/>
<rect x="255.95" y="105.26" style="fill:#91CDFF;" width="88.05" height="141"/>
<polygon style="fill:#808080;" points="244,321.987 219,321.987 219,296.987 193,296.987 193,321.987 168,321.987 168,347.987 
	193,347.987 193,372.987 219,372.987 219,347.987 244,347.987 "/>
<circle style="fill:#FF4682;" cx="291.66" cy="357.66" r="15.327"/>
<circle style="fill:#85E374;" cx="328.67" cy="319.66" r="15.327"/>
<g>
</g>
<g>
</g>
<g>
</g>
<g>
</g>
<g>
</g>
<g>
</g>
<g>
</g>
<g>
</g>
<g>
</g>
<g>
</g>
<g>
</g>
<g>
</g>
<g>
</g>
<g>
</g>
<g>
</g>
</svg>
