<svg width="619" height="651" viewBox="0 0 619 651" fill="none" xmlns="http://www.w3.org/2000/svg">
<path d="M50.8427 371.054C72.6705 391.868 96.4904 410.551 121.969 426.84C137.252 436.513 153.33 444.907 170.034 451.934C138.727 424.938 118.221 387.812 112.207 347.237C98.2602 278.929 101.597 167.603 196.632 25.8795L210.976 4.17415C210.628 2.75004 210.329 1.375 210.03 0C174.323 8.33757 140.236 22.3707 109.118 41.5448C119.346 56.6242 123.965 74.728 122.194 92.7837C120.423 110.839 112.369 127.734 99.4001 140.602C86.4312 153.469 69.346 161.516 51.0441 163.376C32.7422 165.237 14.3512 160.796 -1.00776 150.808C-19.9302 181.165 -33.7714 214.328 -42 249.023C-24.0086 252.655 -7.84185 262.303 3.76614 276.333C15.3741 290.364 21.7109 307.917 21.7048 326.023C21.6949 330.703 21.2447 335.372 20.36 339.969C31.7163 352.443 41.4289 362.411 50.8427 371.3" fill="#EF373E"/>
<path d="M465.298 40.1227C434.871 21.7176 401.664 8.20755 366.927 0.100266C364.001 15.7954 356.297 30.2402 344.84 41.5126C333.383 52.7849 318.716 60.3506 302.791 63.2029C286.866 66.0552 270.437 64.0589 255.691 57.4797C240.944 50.9006 228.58 40.0504 220.241 26.3727C200.071 55.7211 181.884 86.3485 165.801 118.056C152.454 144.951 141.778 173.057 133.924 201.98C129.331 219.223 126.215 236.817 124.609 254.574C139.076 221.319 163.853 193.435 195.387 174.922C197.031 173.94 198.674 173.105 200.368 172.27L202.808 171.043C251.919 142.462 337.291 112.703 466.195 131.757C456.219 118.544 450.761 102.547 450.609 86.0759C450.456 69.6049 455.618 53.5126 465.348 40.1227" fill="#BEB9BB"/>
<path d="M155.938 601.418C191.367 588.842 225.925 573.996 259.39 556.976C286.217 542.958 311.604 526.414 335.198 507.574C349.215 496.245 362.244 483.777 374.149 470.302C339.405 491.061 298.282 498.898 258.195 492.4C199.122 486.262 108.77 458.32 13.3869 360.646C8.01328 371.359 0.231339 380.723 -9.36661 388.025C-18.9646 395.326 -30.1255 400.372 -42 402.78C-33.7399 437.326 -19.8992 470.338 -1.00775 500.552C14.3613 490.469 32.8043 485.959 51.1712 487.793C69.5381 489.627 86.6895 497.69 99.6962 510.607C112.703 523.523 120.758 540.491 122.485 558.612C124.213 576.733 119.506 594.883 109.168 609.963C111.808 611.584 114.448 613.155 117.187 614.874C133.674 609.226 153.647 602.45 155.938 601.566" fill="#BEB9BB"/>
<path d="M301.634 151.228C341.603 154.832 379.066 171.985 407.638 199.764C502.063 283.023 525.917 414.329 531.881 486.667C548.197 486.834 564.061 491.966 577.304 501.36C596.524 470.936 610.606 437.64 619 402.77C600.32 399.832 583.315 390.427 571.038 376.244C558.761 362.061 552.018 344.03 552.018 325.388C552.018 306.746 558.761 288.714 571.038 274.532C583.315 260.349 600.32 250.944 619 248.005C610.615 213.117 596.533 179.804 577.304 149.367C577.9 150.396 561.003 158.281 559.363 158.868C552.81 161.402 545.939 163.049 538.938 163.766C531.932 164.46 524.865 164.246 517.916 163.129C505.74 161.121 494.21 156.714 482.184 154.069C470.157 151.424 458.081 149.416 445.954 147.8C415.936 143.633 385.58 142.321 355.307 143.882C337.3 144.92 319.412 147.443 301.833 151.424" fill="#BEB9BB"/>
<path d="M502.937 418.456C497.676 388.975 489.552 360.06 478.676 332.11C472.058 315.417 464.025 299.301 454.665 283.933C463.785 322.911 458.707 363.805 440.318 399.47C384.873 521.874 252.91 585.897 179.183 612.929L141.671 627.01C163.409 637.399 186.225 645.443 209.72 651C213.013 632.867 222.678 616.452 237.022 604.628C251.366 592.805 269.475 586.326 288.18 586.326C306.885 586.326 324.994 592.805 339.338 604.628C353.682 616.452 363.346 632.867 366.64 651C401.39 642.896 434.603 629.382 465.027 610.967C457.463 600.519 452.626 588.398 450.943 575.674C449.259 562.95 450.781 550.013 455.374 538.005C459.967 525.997 467.489 515.286 477.278 506.818C487.067 498.349 498.822 492.383 511.505 489.446C510.008 465.647 507.181 441.948 503.036 418.456" fill="#BEB9BB"/>
</svg>
