<svg width="80" height="80" viewBox="0 0 80 80" fill="none" xmlns="http://www.w3.org/2000/svg">
    <path d="M80 39.9998C80 54.2905 72.376 67.4958 60 74.6412C47.624 81.7865 32.376 81.7865 20 74.6412C7.624 67.4958 0 54.2905 0 39.9998C0 25.7092 7.624 12.5038 20 5.35851C32.376 -1.78682 47.624 -1.78682 60 5.35851C72.376 12.5038 80 25.7092 80 39.9998Z" fill="#26215D"/>
    <path d="M40 41.29C39.8943 41.29 39.7883 41.2749 39.6878 41.2398L19.0718 34.5191C18.6588 34.3832 18.3765 33.9952 18.3765 33.5618V30.7707C18.3765 30.3223 18.6736 29.9244 19.1069 29.8035L39.7229 23.9139C39.9042 23.8637 40.0959 23.8637 40.2771 23.9139L60.8931 29.8035C61.3264 29.9296 61.6236 30.3225 61.6236 30.7707V33.5618C61.6236 34.0001 61.3415 34.3829 60.9282 34.5191L54.9228 36.479L40.3121 41.2451C40.2116 41.2751 40.1058 41.2902 39.9999 41.2902L40 41.29ZM20.392 32.8314L40 39.2246L59.608 32.8314V31.5316L40 25.9342L20.392 31.5314V32.8314Z" fill="white"/>
    <path d="M39.7431 49.7587C35.1585 49.7587 30.7251 48.1464 27.8838 45.4462C27.6822 45.2548 27.5715 44.9928 27.5715 44.7157L27.5713 37.385C27.5713 36.8309 28.0247 36.3775 28.5788 36.3775C29.133 36.3775 29.5864 36.8309 29.5864 37.385V44.2717C32.0702 46.4532 35.8286 47.743 39.743 47.743C43.6575 47.743 47.4157 46.4532 49.8997 44.2717L49.9 37.007C49.9 36.4529 50.3533 35.9995 50.9075 35.9995C51.4616 35.9995 51.915 36.4529 51.915 37.007V44.7204C51.915 44.9975 51.8041 45.2594 51.6028 45.4508C48.7614 48.1462 44.3281 49.7584 39.7434 49.7584L39.7431 49.7587Z" fill="white"/>
    <path d="M54.7968 46.6961C54.2426 46.6961 53.7893 46.2427 53.7893 45.6885V34.2372L40.7406 30.7156C40.2015 30.5695 39.8841 30.0203 40.0302 29.4812C40.1763 28.9421 40.7255 28.6247 41.2646 28.7708L55.0586 32.494C55.4969 32.6148 55.8042 33.013 55.8042 33.4664V45.6891C55.8044 46.243 55.3511 46.6966 54.7967 46.6966L54.7968 46.6961Z" fill="white"/>
    <path d="M54.8021 51.2653C53.0185 51.2653 51.5625 49.8143 51.5625 48.0257C51.5625 46.2421 53.0136 44.7861 54.8021 44.7861C56.5906 44.7861 58.0417 46.2372 58.0417 48.0257C58.0365 49.8093 56.5854 51.2653 54.8021 51.2653ZM54.8021 46.8065C54.1271 46.8065 53.5779 47.3557 53.5779 48.0307C53.5779 48.7056 54.1271 49.2549 54.8021 49.2549C55.4771 49.2549 56.0263 48.7056 56.0263 48.0307C56.0263 47.3557 55.4721 46.8065 54.8021 46.8065Z" fill="white"/>
    <path d="M57.0392 56.122H52.5603C52.253 56.122 51.9608 55.9809 51.7694 55.734C51.578 55.4921 51.5074 55.1749 51.583 54.8726L52.8122 49.8546C52.9431 49.3155 53.4924 48.983 54.0314 49.114C54.4799 49.2249 54.7822 49.6179 54.7973 50.0562C54.8124 49.6179 55.1197 49.2249 55.5632 49.114C56.1022 48.983 56.6514 49.3106 56.7824 49.8546L58.0116 54.8726C58.0871 55.1749 58.0166 55.4923 57.8252 55.734C57.6387 55.9809 57.3465 56.122 57.0392 56.122ZM53.8449 54.1067H55.7543L54.8273 50.3332C54.8122 50.2676 54.802 50.1973 54.7971 50.1317C54.7971 50.1973 54.7869 50.2676 54.7669 50.3332L53.8449 54.1067Z" fill="white"/>
    </svg>
    