<svg width="80" height="80" viewBox="0 0 80 80" fill="none" xmlns="http://www.w3.org/2000/svg">
    <path d="M80 39.9998C80 54.2905 72.376 67.4958 60 74.6412C47.624 81.7865 32.376 81.7865 20 74.6412C7.624 67.4958 0 54.2905 0 39.9998C0 25.7092 7.624 12.5038 20 5.35851C32.376 -1.78682 47.624 -1.78682 60 5.35851C72.376 12.5038 80 25.7092 80 39.9998Z" fill="#26215D"/>
    <path d="M40 16.0693C26.8047 16.0693 16.0693 26.8047 16.0693 40C16.0693 53.1953 26.8047 63.9307 40 63.9307C53.196 63.9307 63.9307 53.1953 63.9307 40C63.9307 26.8047 53.1953 16.0693 40 16.0693ZM60.4047 41.2593H61.376C61.0872 46.2171 59.1041 50.7273 55.9984 54.218L55.3195 53.5391C54.8283 53.0477 54.0304 53.0477 53.5393 53.5391C53.0473 54.0307 53.0473 54.8279 53.5393 55.3195L54.2179 55.9982C50.7271 59.1042 46.2166 61.087 41.2593 61.3761V60.405C41.2593 59.7094 40.6955 59.1459 40.0001 59.1459C39.3048 59.1459 38.741 59.7094 38.741 60.405L38.7413 61.3761C33.7835 61.0873 29.2733 59.1042 25.7826 55.9987L26.461 55.3198C26.9529 54.8281 26.9529 54.031 26.461 53.5393C25.9699 53.0479 25.1719 53.0479 24.6808 53.5393L24.0019 54.2183C20.8961 50.7274 18.9133 46.2169 18.6243 41.2589H19.5953C20.2907 41.2589 20.8545 40.6954 20.8545 39.9998C20.8545 39.3042 20.2907 38.7407 19.5953 38.7407L18.6243 38.7409C18.9131 33.7831 20.8961 29.2729 24.0019 25.7823L24.6808 26.4609C24.9264 26.7068 25.2485 26.8297 25.5709 26.8297C25.8934 26.8297 26.2155 26.7068 26.4611 26.4609C26.953 25.9693 26.953 25.1721 26.4611 24.6805L25.7824 24.0018C29.2733 20.8961 33.7837 18.913 38.7411 18.6242V19.5953C38.7411 20.2909 39.3049 20.8544 40.0002 20.8544C40.6955 20.8544 41.2593 20.2909 41.2593 19.5953L41.2591 18.6242C46.2169 18.913 50.7271 20.8961 54.2177 24.0015L53.5391 24.6802C53.0471 25.1719 53.0471 25.969 53.5391 26.4607C53.7846 26.7065 54.1068 26.8294 54.4292 26.8294C54.7516 26.8294 55.0737 26.7065 55.3193 26.4607L55.9983 25.7817C59.104 29.2726 61.0871 33.7831 61.3759 38.7404H60.4048C59.7095 38.7404 59.1457 39.3039 59.1457 39.9995C59.1459 40.6954 59.7097 41.2589 60.4048 41.2589L60.4047 41.2593Z" fill="white"/>
    <path d="M41.2595 39.4787V25.7254C41.2595 25.0298 40.6957 24.4662 40.0003 24.4662C39.305 24.4662 38.7412 25.0298 38.7412 25.7254L38.7415 40C38.7415 40.3339 38.8743 40.6542 39.1105 40.8904L46.6678 48.4477C46.9134 48.6935 47.2355 48.8165 47.558 48.8165C47.8803 48.8165 48.2025 48.6935 48.4481 48.4477C48.94 47.956 48.94 47.1589 48.4481 46.6672L41.2595 39.4787Z" fill="white"/>
    </svg>
    