<svg width="35" height="35" viewBox="0 0 35 35" fill="none" xmlns="http://www.w3.org/2000/svg">
<rect width="35" height="35" rx="10" fill="white"/>
<g clip-path="url(#clip0_505_405)">
<path d="M17.5 8.07265C20.5725 8.07265 20.9331 8.08634 22.1475 8.14113C23.2706 8.19135 23.8777 8.37852 24.2841 8.53831C24.8228 8.74831 25.2062 8.99484 25.608 9.39659C26.0097 9.79833 26.2608 10.1818 26.4663 10.7205C26.6215 11.1268 26.8132 11.734 26.8635 12.8571C26.9182 14.0715 26.9319 14.4321 26.9319 17.5046C26.9319 20.577 26.9182 20.9377 26.8635 22.152C26.8132 23.2751 26.6261 23.8823 26.4663 24.2886C26.2563 24.8273 26.0097 25.2108 25.608 25.6125C25.2062 26.0143 24.8228 26.2654 24.2841 26.4708C23.8777 26.626 23.2706 26.8178 22.1475 26.868C20.9331 26.9228 20.5725 26.9365 17.5 26.9365C14.4276 26.9365 14.0669 26.9228 12.8525 26.868C11.7295 26.8178 11.1223 26.6306 10.716 26.4708C10.1773 26.2608 9.79377 26.0143 9.39202 25.6125C8.99028 25.2108 8.73918 24.8273 8.53375 24.2886C8.37853 23.8823 8.18678 23.2751 8.13656 22.152C8.08178 20.9377 8.06808 20.577 8.06808 17.5046C8.06808 14.4321 8.08178 14.0715 8.13656 12.8571C8.18678 11.734 8.37396 11.1268 8.53375 10.7205C8.74375 10.1818 8.99028 9.79833 9.39202 9.39659C9.79377 8.99484 10.1773 8.74375 10.716 8.53831C11.1223 8.38309 11.7295 8.19135 12.8525 8.14113C14.0669 8.08178 14.4321 8.07265 17.5 8.07265ZM17.5 6C14.3773 6 13.9847 6.0137 12.7567 6.06848C11.5332 6.12326 10.6977 6.31957 9.96725 6.60262C9.20941 6.8948 8.57027 7.29198 7.93112 7.93112C7.29198 8.57027 6.89937 9.21397 6.60262 9.96725C6.31957 10.6977 6.12326 11.5331 6.06848 12.7612C6.0137 13.9847 6 14.3773 6 17.5C6 20.6227 6.0137 21.0153 6.06848 22.2433C6.12326 23.4669 6.31957 24.3023 6.60262 25.0373C6.8948 25.7952 7.29198 26.4343 7.93112 27.0734C8.57027 27.7126 9.21398 28.1052 9.96725 28.4019C10.6977 28.685 11.5332 28.8813 12.7612 28.9361C13.9893 28.9909 14.3773 29.0046 17.5046 29.0046C20.6318 29.0046 21.0199 28.9909 22.2479 28.9361C23.4714 28.8813 24.3069 28.685 25.0419 28.4019C25.7997 28.1098 26.4389 27.7126 27.078 27.0734C27.7172 26.4343 28.1098 25.7906 28.4065 25.0373C28.6896 24.3069 28.8859 23.4714 28.9407 22.2433C28.9955 21.0153 29.0091 20.6272 29.0091 17.5C29.0091 14.3728 28.9955 13.9847 28.9407 12.7566C28.8859 11.5331 28.6896 10.6977 28.4065 9.96268C28.1143 9.20484 27.7172 8.5657 27.078 7.92656C26.4389 7.28742 25.7952 6.8948 25.0419 6.59805C24.3114 6.31501 23.476 6.1187 22.2479 6.06391C21.0153 6.0137 20.6227 6 17.5 6Z" fill="#26225E"/>
<path d="M17.5 8.07265C20.5725 8.07265 20.9331 8.08634 22.1475 8.14113C23.2706 8.19135 23.8777 8.37852 24.2841 8.53831C24.8228 8.74831 25.2062 8.99484 25.608 9.39659C26.0097 9.79833 26.2608 10.1818 26.4663 10.7205C26.6215 11.1268 26.8132 11.734 26.8635 12.8571C26.9182 14.0715 26.9319 14.4321 26.9319 17.5046C26.9319 20.577 26.9182 20.9377 26.8635 22.152C26.8132 23.2751 26.6261 23.8823 26.4663 24.2886C26.2563 24.8273 26.0097 25.2108 25.608 25.6125C25.2062 26.0143 24.8228 26.2654 24.2841 26.4708C23.8777 26.626 23.2706 26.8178 22.1475 26.868C20.9331 26.9228 20.5725 26.9365 17.5 26.9365C14.4276 26.9365 14.0669 26.9228 12.8525 26.868C11.7295 26.8178 11.1223 26.6306 10.716 26.4708C10.1773 26.2608 9.79377 26.0143 9.39202 25.6125C8.99028 25.2108 8.73918 24.8273 8.53375 24.2886C8.37853 23.8823 8.18678 23.2751 8.13656 22.152C8.08178 20.9377 8.06808 20.577 8.06808 17.5046C8.06808 14.4321 8.08178 14.0715 8.13656 12.8571C8.18678 11.734 8.37396 11.1268 8.53375 10.7205C8.74375 10.1818 8.99028 9.79833 9.39202 9.39659C9.79377 8.99484 10.1773 8.74375 10.716 8.53831C11.1223 8.38309 11.7295 8.19135 12.8525 8.14113C14.0669 8.08178 14.4321 8.07265 17.5 8.07265Z" fill="#26225E"/>
<path d="M17.5 11.597C14.2403 11.597 11.5925 14.2404 11.5925 17.5045C11.5925 20.7687 14.2358 23.412 17.5 23.412C20.7642 23.412 23.4075 20.7687 23.4075 17.5045C23.4075 14.2404 20.7642 11.597 17.5 11.597ZM17.5 21.3348C15.3817 21.3348 13.6651 19.6183 13.6651 17.5C13.6651 15.3817 15.3817 13.6651 17.5 13.6651C19.6183 13.6651 21.3348 15.3817 21.3348 17.5C21.3348 19.6183 19.6183 21.3348 17.5 21.3348Z" fill="white"/>
<path d="M23.6403 12.7384C24.4018 12.7384 25.0191 12.1211 25.0191 11.3597C25.0191 10.5982 24.4018 9.98096 23.6403 9.98096C22.8789 9.98096 22.2616 10.5982 22.2616 11.3597C22.2616 12.1211 22.8789 12.7384 23.6403 12.7384Z" fill="white"/>
</g>
<defs>
<clipPath id="clip0_505_405">
<rect width="23" height="23" fill="white" transform="translate(6 6)"/>
</clipPath>
</defs>
</svg>
