<?xml version="1.0" encoding="iso-8859-1"?>
<!-- Generator: Adobe Illustrator 19.0.0, SVG Export Plug-In . SVG Version: 6.00 Build 0)  -->
<svg version="1.1" id="Capa_1" xmlns="http://www.w3.org/2000/svg" xmlns:xlink="http://www.w3.org/1999/xlink" x="0px" y="0px"
	 viewBox="0 0 512 512" style="enable-background:new 0 0 512 512;" xml:space="preserve">
<circle style="fill:#91CDFF;" cx="256" cy="256" r="256"/>
<path style="fill:#1E8CE6;" d="M510.385,284.745L306.546,80.906L205,180.628l64.558,64.559L245.11,353.776L205,313.667l-57.667,104
	l93.899,93.899c4.889,0.278,9.81,0.434,14.768,0.434C387.665,512,496.096,412.596,510.385,284.745z"/>
<rect x="168.33" y="313.67" style="fill:#D7283C;" width="36.667" height="63.33"/>
<rect x="228.67" y="152.33" style="fill:#FFFFFF;" width="54.667" height="233.33"/>
<rect x="255.95" y="152.33" style="fill:#E0E0E0;" width="27.381" height="233.33"/>
<circle style="fill:#D7283C;" cx="256" cy="131" r="71.17"/>
<path style="fill:#C30032;" d="M256,59.833c-0.016,0-0.032,0.001-0.048,0.001v142.331c0.016,0,0.032,0.001,0.048,0.001
	c39.304,0,71.167-31.862,71.167-71.167S295.304,59.833,256,59.833z"/>
<rect x="147.33" y="346.33" style="fill:#4D4D4D;" width="217.33" height="71.33"/>
<rect x="255.95" y="346.33" style="fill:#333333;" width="108.71" height="71.33"/>
<g>
</g>
<g>
</g>
<g>
</g>
<g>
</g>
<g>
</g>
<g>
</g>
<g>
</g>
<g>
</g>
<g>
</g>
<g>
</g>
<g>
</g>
<g>
</g>
<g>
</g>
<g>
</g>
<g>
</g>
</svg>
