<svg width="35" height="35" viewBox="0 0 35 35" fill="none" xmlns="http://www.w3.org/2000/svg">
<rect width="35" height="35" rx="10" fill="white"/>
<g clip-path="url(#clip0_505_410)">
<path d="M27.3022 6H7.69785C7.24755 6 6.8157 6.17888 6.49729 6.49729C6.17888 6.8157 6 7.24755 6 7.69785V27.3022C6 27.7524 6.17888 28.1843 6.49729 28.5027C6.8157 28.8211 7.24755 29 7.69785 29H27.3022C27.7524 29 28.1843 28.8211 28.5027 28.5027C28.8211 28.1843 29 27.7524 29 27.3022V7.69785C29 7.24755 28.8211 6.8157 28.5027 6.49729C28.1843 6.17888 27.7524 6 27.3022 6ZM12.8553 25.5931H9.39729V14.609H12.8553V25.5931ZM11.1239 13.0869C10.7316 13.0847 10.3488 12.9663 10.0238 12.7468C9.69874 12.5272 9.44601 12.2163 9.29751 11.8532C9.149 11.4901 9.11137 11.0912 9.18936 10.7068C9.26736 10.3224 9.45748 9.96968 9.73573 9.69321C10.014 9.41673 10.3679 9.22888 10.7528 9.15336C11.1377 9.07784 11.5364 9.11803 11.8985 9.26886C12.2606 9.41969 12.5699 9.67441 12.7874 10.0009C13.0048 10.3273 13.1207 10.7109 13.1204 11.1031C13.1241 11.3657 13.0749 11.6264 12.9757 11.8696C12.8765 12.1128 12.7294 12.3335 12.5431 12.5186C12.3568 12.7038 12.1351 12.8495 11.8913 12.9471C11.6475 13.0447 11.3865 13.0923 11.1239 13.0869ZM25.6011 25.6027H22.1447V19.6019C22.1447 17.8322 21.3924 17.286 20.4213 17.286C19.3959 17.286 18.3897 18.059 18.3897 19.6467V25.6027H14.9317V14.617H18.2571V16.1392H18.3018C18.6356 15.4635 19.8048 14.3088 21.5889 14.3088C23.5183 14.3088 25.6027 15.454 25.6027 18.8081L25.6011 25.6027Z" fill="#26225E"/>
</g>
<defs>
<clipPath id="clip0_505_410">
<rect width="23" height="23" fill="white" transform="translate(6 6)"/>
</clipPath>
</defs>
</svg>
