<svg width="161" height="50" viewBox="0 0 161 50" fill="none" xmlns="http://www.w3.org/2000/svg">
<g clip-path="url(#clip0_242_597)">
<path d="M5.57058 22.2729C6.88026 23.5224 8.30945 24.644 9.83818 25.6219C10.7552 26.2026 11.7198 26.7066 12.7221 27.1284C10.8437 25.5077 9.61332 23.2789 9.25243 20.843C8.41564 16.7422 8.61587 10.0588 14.318 1.55057L15.1786 0.247509C15.1577 0.162014 15.1398 0.0794649 15.1219 -0.00308228C12.9794 0.497457 10.9342 1.33992 9.06714 2.49102C9.68077 3.3963 9.95796 4.48315 9.85167 5.56711C9.74539 6.65107 9.26217 7.66535 8.48404 8.43783C7.7059 9.21031 6.68079 9.69338 5.58267 9.80507C4.48455 9.91676 3.38108 9.65018 2.45954 9.05058C1.32419 10.873 0.493717 12.8639 0 14.9468C1.07949 15.1649 2.0495 15.744 2.74598 16.5864C3.44246 17.4287 3.82267 18.4824 3.8223 19.5694C3.82171 19.8504 3.7947 20.1307 3.74161 20.4067C4.423 21.1555 5.00575 21.754 5.57058 22.2876" fill="#EF373E"/>
<path d="M30.438 2.40564C28.6123 1.30071 26.6199 0.489644 24.5357 0.00292969C24.3601 0.945176 23.8979 1.81235 23.2105 2.48908C22.523 3.16581 21.643 3.62001 20.6875 3.79124C19.732 3.96248 18.7463 3.84264 17.8615 3.44766C16.9767 3.05268 16.2348 2.4013 15.7345 1.58017C14.5243 3.34208 13.4331 5.18077 12.4681 7.0843C11.6672 8.69893 11.0267 10.3862 10.5554 12.1226C10.2799 13.1578 10.0929 14.214 9.99658 15.2801C10.8646 13.2836 12.3512 11.6097 14.2433 10.4982C14.3419 10.4393 14.4405 10.3891 14.5421 10.339L14.6885 10.2653C17.6352 8.54951 22.7575 6.76295 30.4918 7.90682C29.8932 7.1136 29.5657 6.15323 29.5566 5.16441C29.5475 4.17559 29.8572 3.20949 30.441 2.40564" fill="#BEB9BB"/>
<path d="M11.8763 36.1026C14.0021 35.3476 16.0756 34.4563 18.0835 33.4345C19.6931 32.593 21.2163 31.5997 22.632 30.4687C23.473 29.7886 24.2548 29.0401 24.969 28.2311C22.8844 29.4774 20.417 29.9479 18.0117 29.5578C14.4674 29.1892 9.04622 27.5118 3.32322 21.648C3.00081 22.2912 2.53389 22.8533 1.95801 23.2917C1.38213 23.73 0.712471 24.0329 0 24.1775C0.495607 26.2514 1.32606 28.2333 2.45954 30.0472C3.38169 29.4418 4.48827 29.1711 5.59029 29.2812C6.69231 29.3913 7.7214 29.8754 8.5018 30.6508C9.2822 31.4262 9.7655 32.4448 9.86916 33.5327C9.97281 34.6206 9.69039 35.7103 9.07013 36.6155C9.22852 36.7128 9.38691 36.8072 9.55128 36.9104C10.5405 36.5713 11.7389 36.1645 11.8763 36.1114" fill="#BEB9BB"/>
<path d="M20.5759 9.07725C22.9794 9.2942 25.2322 10.3267 26.9504 11.9988C32.6285 17.0106 34.063 24.9145 34.4216 29.2689C35.4028 29.279 36.3568 29.5879 37.1531 30.1533C38.3089 28.322 39.1557 26.3177 39.6605 24.2188C38.5372 24.0419 37.5146 23.4758 36.7763 22.622C36.0381 21.7683 35.6326 20.6829 35.6326 19.5607C35.6326 18.4386 36.0381 17.3532 36.7763 16.4995C37.5146 15.6457 38.5372 15.0796 39.6605 14.9027C39.1563 12.8026 38.3094 10.7973 37.1531 8.96522C37.189 9.02714 36.1729 9.50178 36.0743 9.53716C35.6802 9.68963 35.267 9.7888 34.846 9.83197C34.4247 9.87374 33.9997 9.86086 33.5819 9.79364C32.8497 9.67277 32.1563 9.40744 31.4331 9.24824C30.7099 9.08904 29.9837 8.96817 29.2545 8.87088C27.4494 8.62008 25.6239 8.5411 23.8035 8.63503C22.7206 8.69754 21.645 8.84941 20.5878 9.08905" fill="#BEB9BB"/>
<path d="M32.7122 25.1474C32.3967 23.3759 31.9093 21.6383 31.2568 19.9587C30.8598 18.9556 30.3779 17.9872 29.8164 17.0637C30.3635 19.4059 30.0588 21.8634 28.9557 24.0065C25.6295 31.362 17.7129 35.2093 13.2899 36.8337L11.0396 37.6798C12.3436 38.3042 13.7124 38.7875 15.1219 39.1215C15.3194 38.0318 15.8992 37.0454 16.7597 36.3349C17.6202 35.6244 18.7066 35.2351 19.8288 35.2351C20.9509 35.2351 22.0373 35.6244 22.8978 36.3349C23.7583 37.0454 24.3381 38.0318 24.5357 39.1215C26.6203 38.6345 28.6128 37.8224 30.438 36.7158C29.9842 36.088 29.694 35.3596 29.5931 34.595C29.4921 33.8304 29.5834 33.053 29.8589 32.3314C30.1344 31.6098 30.5857 30.9662 31.1729 30.4573C31.7602 29.9484 32.4654 29.5899 33.2263 29.4133C33.1365 27.9832 32.9669 26.5591 32.7182 25.1474" fill="#BEB9BB"/>
<path d="M52.544 46.7541H50.5955L50.2129 47.9334C50.0256 48.0168 49.8203 48.0533 49.6152 48.0395C49.41 48.0555 49.2042 48.0189 49.0175 47.9334L50.8794 42.6268C51.3378 42.5246 51.8136 42.5246 52.272 42.6268L54.1189 47.9334C53.9323 48.0189 53.7264 48.0555 53.5212 48.0395C53.3162 48.0523 53.1111 48.0159 52.9235 47.9334L52.541 46.7541M52.2421 45.8196L51.9433 44.9352C51.7865 44.4267 51.6686 43.9074 51.5906 43.3815H51.5279C51.4461 43.9157 51.3233 44.443 51.1603 44.9587L50.8764 45.8432L52.2421 45.8196ZM56.8833 47.9363C56.5271 48.0581 56.1397 48.0581 55.7835 47.9363V42.6297C56.0327 42.5757 56.2875 42.551 56.5426 42.556C56.7967 42.5499 57.0507 42.5747 57.2987 42.6297L58.7929 45.283C59.0157 45.7231 59.1795 46.1898 59.2801 46.6716H59.3398V42.6592C59.512 42.5857 59.6996 42.5543 59.8867 42.5678C60.0697 42.5586 60.2525 42.5899 60.4217 42.6592V47.9658C60.1872 48.0234 59.9459 48.0492 59.7044 48.0425C59.4639 48.0503 59.2234 48.0245 58.9902 47.9658L57.4332 45.1504C57.2098 44.7145 57.0489 44.2502 56.955 43.7706H56.8952L56.8833 47.9363ZM62.2297 46.4623C62.2746 46.9929 62.6601 47.2524 63.4251 47.2524C63.8352 47.2556 64.2417 47.1774 64.6205 47.0224C64.6361 47.3316 64.5385 47.6361 64.3456 47.8803C63.9688 48.0672 63.5508 48.1584 63.1293 48.1456C61.7844 48.1456 61.0672 47.3791 61.0672 46.1498C61.0672 44.9204 61.8382 44.0625 63.0456 44.0625C64.1693 44.0625 64.6833 44.7465 64.6833 45.7488C64.6828 45.991 64.6445 46.2316 64.5697 46.4623H62.2297ZM63.6373 45.6633C63.7001 45.2712 63.5536 44.8821 62.9978 44.8821C62.8932 44.8796 62.7893 44.8983 62.6924 44.9369C62.5954 44.9756 62.5076 45.0335 62.4342 45.107C62.3608 45.1805 62.3035 45.268 62.2657 45.3642C62.228 45.4604 62.2107 45.5632 62.2148 45.6663L63.6373 45.6633ZM66.4704 42.901C66.4807 42.9919 66.4706 43.0839 66.4409 43.1705C66.4112 43.2572 66.3625 43.3363 66.2984 43.4024C66.2343 43.4685 66.1562 43.5199 66.0697 43.5529C65.9833 43.586 65.8905 43.5999 65.798 43.5938C65.7052 43.6041 65.6112 43.5933 65.5233 43.5623C65.4353 43.5313 65.3557 43.4809 65.2905 43.4149C65.2254 43.3489 65.1764 43.2691 65.1472 43.1816C65.1181 43.094 65.1097 43.0011 65.1226 42.9098C65.1178 42.8213 65.132 42.7328 65.1643 42.6502C65.1966 42.5675 65.2463 42.4925 65.3101 42.4301C65.3739 42.3678 65.4504 42.3194 65.5345 42.2883C65.6185 42.2571 65.7084 42.2439 65.798 42.2494C65.8876 42.2414 65.9778 42.2528 66.0624 42.2828C66.1471 42.3127 66.2241 42.3605 66.2881 42.4228C66.3521 42.4851 66.4016 42.5604 66.4331 42.6435C66.4646 42.7266 66.4773 42.8155 66.4704 42.9039V42.901ZM65.2391 44.2748C65.4164 44.2044 65.6072 44.1732 65.798 44.1834C65.9879 44.1722 66.1779 44.2034 66.3539 44.2748V47.9363C66.1779 48.0077 65.9879 48.0389 65.798 48.0277C65.6072 48.0379 65.4164 48.0067 65.2391 47.9363V44.2748ZM68.1141 48.1456C67.3461 48.1456 67.1159 47.6533 67.1159 46.9664V42.5442C67.4625 42.3785 67.8461 42.3024 68.2307 42.3231V46.7866C68.2307 47.0814 68.3293 47.1492 68.5534 47.1492C68.7202 47.1524 68.8839 47.105 69.0226 47.0136C69.0471 47.344 68.9723 47.6742 68.8074 47.9629C68.5983 48.0872 68.3582 48.1515 68.1141 48.1486V48.1456ZM72.0231 47.1964C72.7074 47.1964 72.9764 46.9399 72.9764 46.536C72.9764 45.4216 70.4153 46.0201 70.4153 44.0802C70.4153 42.9923 71.1385 42.4234 72.3219 42.4234C72.7968 42.4115 73.2659 42.5277 73.6787 42.7594C73.8562 43.0786 73.9283 43.4445 73.8849 43.806C73.4399 43.5373 72.9302 43.3908 72.4086 43.3815C71.8378 43.3815 71.5838 43.5849 71.5838 43.9357C71.5838 44.9823 74.13 44.4281 74.13 46.3945C74.13 47.73 73.2005 48.1633 72.038 48.1633C71.5124 48.175 70.9904 48.0744 70.5079 47.8685C70.326 47.5317 70.253 47.1479 70.2987 46.7689C70.8308 47.0451 71.4218 47.1926 72.0231 47.1993V47.1964ZM77.0557 47.5531C76.9514 47.7471 76.7915 47.9065 76.5959 48.0114C76.4003 48.1162 76.1777 48.1619 75.956 48.1427C75.17 48.1427 74.4079 47.6415 74.4079 46.2618C74.4079 44.8202 75.2536 44.0596 76.6254 44.0596C77.1526 44.0489 77.6716 44.1892 78.1196 44.4635V49.7701C77.9447 49.8414 77.7557 49.8727 77.5668 49.8614C77.375 49.8715 77.1833 49.8404 77.0049 49.7701V48.8296C77.0018 48.4051 77.0348 47.981 77.1035 47.5619L77.0557 47.5531ZM77.0318 45.0501C76.8914 44.9903 76.7393 44.9621 76.5865 44.9676C75.8693 44.9676 75.5555 45.4127 75.5555 46.1468C75.5555 46.8455 75.8245 47.1551 76.3235 47.1551C76.4624 47.1588 76.6 47.1281 76.7237 47.0658C76.8475 47.0034 76.9534 46.9115 77.0318 46.7984V45.0501ZM81.3412 47.5413C81.1709 47.8833 80.8123 48.1486 80.1458 48.1486C79.5481 48.1486 78.8697 47.9452 78.8697 46.6745V44.3691C79.216 44.2021 79.5994 44.124 79.9845 44.1421V46.5006C79.9845 46.9104 80.116 47.1374 80.5612 47.1374C80.7014 47.1441 80.8412 47.1183 80.9695 47.0619C81.0977 47.0056 81.2107 46.9204 81.2994 46.8131V44.2836C81.4777 44.2133 81.6695 44.1821 81.8612 44.1922C82.0502 44.181 82.2392 44.2122 82.4141 44.2836V47.9039C82.1433 48.032 81.8445 48.0918 81.5445 48.0778L81.416 47.5472L81.3412 47.5413ZM84.4194 42.9039C84.4296 42.9945 84.4196 43.0863 84.39 43.1727C84.3605 43.2591 84.3121 43.3381 84.2483 43.4042C84.1845 43.4702 84.1069 43.5216 84.0208 43.5549C83.9347 43.5882 83.8423 43.6024 83.75 43.5967C83.6571 43.6069 83.563 43.5961 83.475 43.5651C83.3869 43.5341 83.3072 43.4838 83.2418 43.4179C83.1764 43.3519 83.1271 43.2722 83.0976 43.1847C83.0681 43.0972 83.0592 43.0042 83.0716 42.9127C83.0667 42.824 83.081 42.7353 83.1135 42.6524C83.146 42.5695 83.196 42.4944 83.2601 42.4319C83.3242 42.3695 83.4011 42.3212 83.4855 42.2903C83.57 42.2593 83.6601 42.2464 83.75 42.2524C83.8384 42.2457 83.9273 42.2581 84.0105 42.2885C84.0936 42.3189 84.1692 42.3666 84.2319 42.4285C84.2946 42.4904 84.343 42.5649 84.3739 42.6469C84.4047 42.729 84.4172 42.8166 84.4104 42.9039H84.4194ZM83.1881 44.2777C83.3665 44.2074 83.5582 44.1762 83.75 44.1863C83.9389 44.1751 84.128 44.2063 84.3029 44.2777V47.9363C84.128 48.0077 83.9389 48.039 83.75 48.0277C83.5582 48.0378 83.3665 48.0066 83.1881 47.9363V44.2777ZM87.1121 44.0655C87.2362 44.0614 87.3597 44.0846 87.4737 44.1333C87.5887 44.346 87.6444 44.5851 87.635 44.8261C87.6403 44.9832 87.617 45.1399 87.5663 45.2889C87.4052 45.1965 87.2206 45.1515 87.0344 45.1592C86.8424 45.167 86.6581 45.2353 86.5085 45.3542C86.359 45.4731 86.252 45.6362 86.2035 45.8196V47.9363C86.0287 48.0077 85.8396 48.039 85.6507 48.0277C85.4589 48.0378 85.2672 48.0066 85.0888 47.9363V44.316C85.3697 44.1895 85.6768 44.13 85.9854 44.1421L86.0631 44.8408H86.1229C86.1576 44.6137 86.2777 44.4078 86.4594 44.2642C86.641 44.1205 86.8708 44.0495 87.1031 44.0655H87.1121ZM88.7109 46.4652C88.7587 46.9959 89.1442 47.2553 89.9063 47.2553C90.3163 47.2578 90.7227 47.1796 91.1017 47.0254C91.1165 47.335 91.0178 47.6395 90.8238 47.8833C90.448 48.0698 90.031 48.161 89.6105 48.1486C88.2626 48.1486 87.5484 47.3821 87.5484 46.1527C87.5484 44.9234 88.3164 44.0655 89.5238 44.0655C90.6475 44.0655 91.1645 44.7494 91.1645 45.7518C91.163 45.9941 91.1237 46.2347 91.0479 46.4652H88.7109ZM90.1215 45.6663C90.1813 45.2742 90.0348 44.885 89.4819 44.885C89.3762 44.8801 89.2706 44.8968 89.1717 44.9342C89.0728 44.9716 88.9829 45.0288 88.9077 45.1022C88.8324 45.1757 88.7734 45.2637 88.7343 45.3608C88.6953 45.4579 88.6772 45.5619 88.681 45.6663H90.1215ZM93.0203 42.6622C93.5551 42.5614 94.0987 42.513 94.6431 42.5177C96.1971 42.5177 97.1295 43.0425 97.1295 44.378C97.1295 45.7135 96.1822 46.3267 95.0047 46.3267C94.7299 46.3269 94.4553 46.3092 94.1829 46.2736V47.9304C94.0008 48.0065 93.8034 48.0398 93.6061 48.0277C93.402 48.0397 93.1978 48.0065 93.0084 47.9304L93.0203 42.6622ZM94.1739 43.5466V45.3155C94.3983 45.3507 94.6251 45.3684 94.8523 45.3685C95.5367 45.3685 95.9521 45.1032 95.9521 44.4576C95.9521 43.8119 95.5128 43.5083 94.7298 43.5083C94.5408 43.5024 94.3517 43.5143 94.1649 43.5436L94.1739 43.5466ZM99.5203 44.0684C99.6402 44.0655 99.7594 44.0876 99.87 44.1333C99.984 44.3463 100.039 44.5854 100.028 44.8261C100.034 44.9832 100.01 45.1399 99.9597 45.2889C99.7996 45.1966 99.616 45.1516 99.4307 45.1592C99.2388 45.167 99.0544 45.2353 98.9049 45.3542C98.7553 45.4731 98.6484 45.6362 98.5999 45.8196V47.9363C98.4239 48.0077 98.2339 48.0389 98.044 48.0277C97.8532 48.0382 97.6624 48.0069 97.4852 47.9363V44.316C97.766 44.1892 98.0732 44.1296 98.3817 44.1421L98.4564 44.8408H98.5192C98.5527 44.6109 98.6742 44.4024 98.8587 44.2582C99.0433 44.114 99.2769 44.045 99.5114 44.0655L99.5203 44.0684ZM103.815 46.0495C103.815 47.4145 103.083 48.1515 101.899 48.1515C100.659 48.1515 99.9836 47.4528 99.9836 46.0495C99.9836 44.8054 100.761 44.0684 101.899 44.0684C103.038 44.0684 103.806 44.7583 103.806 46.0466L103.815 46.0495ZM101.899 47.2494C102.431 47.2494 102.667 46.8102 102.667 46.0702C102.667 45.401 102.392 44.9853 101.899 44.9853C101.406 44.9853 101.131 45.401 101.131 46.0702C101.122 46.8072 101.382 47.2465 101.89 47.2465L101.899 47.2494ZM104.676 46.6038C104.503 46.4755 104.366 46.3057 104.279 46.1106C104.192 45.9156 104.156 45.7017 104.176 45.4894C104.176 44.546 104.876 44.0684 105.847 44.0684C106.138 44.0637 106.428 44.1157 106.699 44.2217H107.807C107.902 44.4765 107.946 44.7466 107.939 45.0177H107.386V45.056C107.477 45.1952 107.518 45.3601 107.503 45.5248C107.503 46.4092 106.878 46.8986 105.862 46.8986C105.716 46.9015 105.571 46.8806 105.432 46.8367C105.392 46.8655 105.359 46.9032 105.337 46.9468C105.315 46.9903 105.303 47.0385 105.303 47.0873C105.303 47.3025 105.563 47.3467 106.071 47.3467C107.171 47.3467 107.957 47.559 107.957 48.5613C107.957 49.5637 107.156 49.9941 105.865 49.9941C104.696 49.9941 103.949 49.6698 103.949 48.7795C103.933 48.5897 103.984 48.4001 104.093 48.2428C104.201 48.0854 104.362 47.9699 104.547 47.9157V47.8626C104.444 47.8088 104.358 47.7261 104.302 47.625C104.246 47.5239 104.221 47.4087 104.23 47.2936C104.22 47.1522 104.258 47.0115 104.339 46.8942C104.42 46.777 104.538 46.6902 104.676 46.648V46.6038ZM105.252 48.1663C105.172 48.2131 105.106 48.28 105.06 48.3602C105.014 48.4405 104.991 48.5312 104.992 48.6232C104.992 49.0389 105.414 49.1539 105.961 49.1539C106.576 49.1539 106.923 48.9947 106.923 48.6291C106.923 48.3491 106.717 48.2341 105.916 48.2341C105.691 48.2434 105.467 48.2196 105.249 48.1633L105.252 48.1663ZM105.85 46.1026C105.973 46.098 106.091 46.0579 106.191 45.9873C106.29 45.9167 106.366 45.8188 106.41 45.7057C106.454 45.5926 106.462 45.4694 106.435 45.3514C106.408 45.2333 106.347 45.1258 106.258 45.0421C106.17 44.9584 106.058 44.9022 105.938 44.8806C105.817 44.859 105.693 44.873 105.58 44.9207C105.467 44.9684 105.371 45.0477 105.304 45.1489C105.237 45.25 105.201 45.3684 105.202 45.4894C105.194 45.5738 105.205 45.6589 105.235 45.7384C105.265 45.8179 105.313 45.8896 105.375 45.9483C105.437 46.007 105.512 46.051 105.593 46.0773C105.675 46.1035 105.762 46.1111 105.847 46.0997L105.85 46.1026ZM110.333 44.0684C110.456 44.0643 110.578 44.0875 110.691 44.1362C110.809 44.3482 110.866 44.5877 110.856 44.829C110.86 44.9863 110.836 45.1431 110.784 45.2919C110.624 45.1991 110.44 45.154 110.255 45.1622C110.063 45.1699 109.879 45.2383 109.729 45.3572C109.58 45.4761 109.473 45.6392 109.424 45.8225V47.9393C109.248 48.0103 109.058 48.0416 108.868 48.0307C108.677 48.0404 108.485 48.0092 108.307 47.9393V44.316C108.588 44.19 108.895 44.1304 109.203 44.1421L109.278 44.8408H109.341C109.375 44.6118 109.496 44.4042 109.68 44.2601C109.863 44.1161 110.096 44.0465 110.33 44.0655L110.333 44.0684ZM113.022 47.6061C112.918 47.7881 112.762 47.9364 112.573 48.0331C112.385 48.1298 112.173 48.171 111.962 48.1515C111.283 48.1515 110.7 47.8184 110.7 46.9369C110.7 46.0554 111.376 45.6545 112.269 45.6545C112.506 45.6524 112.742 45.6862 112.969 45.7547V45.6486C112.969 45.1857 112.739 45.0177 112.23 45.0177C111.799 45.0177 111.375 45.1274 110.999 45.3361C110.903 44.9943 110.947 44.6291 111.122 44.319C111.537 44.1353 111.991 44.0495 112.446 44.0684C113.554 44.0684 114.083 44.4576 114.083 45.5778V46.8927C114.083 47.1285 114.191 47.1875 114.346 47.1875C114.463 47.1892 114.577 47.1575 114.675 47.0961C114.701 47.4038 114.633 47.7121 114.478 47.9806C114.287 48.0994 114.064 48.1599 113.838 48.1545C113.665 48.1799 113.489 48.1369 113.348 48.0347C113.207 47.9326 113.112 47.7796 113.085 47.6091L113.022 47.6061ZM112.993 46.4829C112.831 46.4201 112.658 46.3891 112.485 46.3915C112.039 46.3915 111.815 46.5743 111.815 46.8632C111.815 47.1521 112.039 47.2642 112.347 47.2642C112.468 47.2701 112.589 47.2494 112.7 47.2035C112.812 47.1576 112.912 47.0877 112.993 46.9988V46.4829ZM116.086 47.9393C115.91 48.0106 115.72 48.0419 115.53 48.0307C115.338 48.0408 115.146 48.0096 114.968 47.9393V44.316C115.249 44.1913 115.556 44.1318 115.865 44.1421L115.927 44.7642H115.987C116.1 44.5377 116.279 44.35 116.501 44.2253C116.723 44.1007 116.978 44.045 117.233 44.0655C117.467 44.0393 117.703 44.0898 117.905 44.2091C118.107 44.3285 118.264 44.51 118.351 44.7258H118.411C118.572 44.3691 118.949 44.0655 119.633 44.0655C120.213 44.0655 120.888 44.2718 120.888 45.5395V47.9511C120.713 48.0225 120.524 48.0537 120.335 48.0425C120.144 48.0526 119.952 48.0214 119.773 47.9511V45.737C119.773 45.342 119.642 45.0914 119.203 45.0914C119.051 45.0864 118.901 45.1242 118.77 45.2005C118.639 45.2767 118.533 45.3882 118.465 45.5218C118.465 45.5896 118.479 45.7518 118.479 45.911V47.9511C118.308 48.023 118.122 48.0543 117.936 48.0425C117.746 48.0527 117.556 48.0215 117.38 47.9511V45.737C117.38 45.342 117.248 45.0914 116.812 45.0914C116.66 45.0846 116.509 45.1216 116.378 45.1981C116.247 45.2745 116.141 45.387 116.074 45.5218L116.086 47.9393Z" fill="#26225E"/>
<path d="M60.6548 7.1934H60.5173C60.3233 8.3412 60.0477 9.47411 59.6925 10.5837L57.6453 17.1964C56.8362 17.4204 55.98 17.4204 55.1709 17.1964L53.058 10.4982C52.7143 9.419 52.4614 8.31364 52.3019 7.1934H52.1644V17.1462C51.4108 17.3939 50.596 17.3939 49.8423 17.1462V5.32724C50.4739 5.18848 51.1201 5.12611 51.7669 5.14152C52.4198 5.1232 53.0724 5.1856 53.7095 5.32724L55.6879 11.5684C56.0234 12.6587 56.2643 13.7751 56.4081 14.9057H56.5366C56.6825 13.7902 56.9062 12.686 57.206 11.6008L59.0978 5.32724C59.7349 5.18575 60.3875 5.12336 61.0403 5.14152C61.6871 5.12611 62.3334 5.18848 62.9649 5.32724V17.1462C62.6028 17.3009 62.2075 17.3647 61.8143 17.332C61.4155 17.3608 61.0153 17.2972 60.6458 17.1462V7.1934" fill="#EF373E"/>
<path d="M69.3484 16.3827C68.9718 17.1285 68.153 17.6032 66.9785 17.6032C65.4663 17.6032 64.1603 16.8573 64.1603 14.8909C64.1603 12.8272 65.6725 12.0253 67.6659 12.0253C68.1953 12.0189 68.7226 12.0935 69.2289 12.2465V11.9988C69.2289 10.964 68.7118 10.5926 67.5792 10.5926C66.6161 10.5926 65.6692 10.8373 64.8298 11.3031C64.6236 10.6427 64.7102 9.59021 65.1047 9.03301C65.7233 8.69398 66.7872 8.47287 68.0603 8.47287C70.5348 8.47287 71.7213 9.33667 71.7213 11.8455V14.7789C71.7213 15.3066 71.9604 15.4245 72.304 15.4245C72.5658 15.4285 72.8231 15.3579 73.0452 15.2211C73.1023 15.9119 72.946 16.6037 72.5969 17.2052C72.1741 17.4708 71.6816 17.6081 71.1804 17.6002C70.1822 17.6002 69.6682 17.1757 69.4948 16.3797H69.3574M69.2886 13.8709C68.9278 13.732 68.5433 13.6629 68.156 13.6674C67.1578 13.6674 66.6617 14.0743 66.6617 14.717C66.6617 15.3597 67.1608 15.6014 67.8571 15.6014C68.1272 15.6169 68.3974 15.5719 68.6474 15.4698C68.8974 15.3677 69.1207 15.2111 69.3006 15.0118L69.2886 13.8709Z" fill="#EF373E"/>
<path d="M76.8256 11.6863L78.8519 8.8532C79.1761 8.76045 79.5124 8.71476 79.85 8.71758C80.4081 8.68834 80.9646 8.79996 81.4668 9.04188L78.8519 12.6179C79.7484 14.1955 80.7655 15.7034 81.8942 17.1285C81.4658 17.3065 81.001 17.3822 80.5374 17.3497C79.9954 17.3698 79.454 17.295 78.9385 17.1285C78.105 16.0488 77.3633 14.903 76.721 13.7028H75.962V17.1285C75.5702 17.287 75.1474 17.3565 74.7247 17.332C74.2964 17.3538 73.8683 17.2844 73.4695 17.1285V5.10614C74.0672 4.7848 74.8622 4.61676 75.962 4.61676V11.6922H76.8227" fill="#EF373E"/>
<path d="M84.1116 13.8385C84.2132 15.0177 85.0739 15.6073 86.7744 15.6073C87.6963 15.6175 88.6109 15.445 89.464 15.1002C89.4965 15.7919 89.2759 16.472 88.8424 17.0165C88.0016 17.4324 87.069 17.6351 86.1289 17.6061C83.1194 17.6061 81.5236 15.8933 81.5236 13.1486C81.5236 10.3155 83.242 8.48468 85.9406 8.48468C88.4479 8.48468 89.6015 10.0089 89.6015 12.2494C89.5994 12.7902 89.5117 13.3273 89.3415 13.8414H84.1116M87.2585 12.0725C87.396 11.1881 87.0672 10.3273 85.83 10.3273C84.7631 10.3273 84.1116 11.0053 84.0369 12.0725H87.2585Z" fill="#EF373E"/>
<path d="M95.2139 8.48174C95.4913 8.47053 95.7675 8.52301 96.0208 8.63504C96.2799 9.10751 96.4048 9.64021 96.3824 10.1769C96.3936 10.5282 96.3409 10.8787 96.227 11.2117C95.866 11.001 95.4507 10.8986 95.0316 10.9169C94.156 10.9169 93.5045 11.5065 93.1758 12.3909V17.1079C92.7842 17.2669 92.3612 17.3365 91.9385 17.3113C91.5102 17.3332 91.0821 17.2638 90.6833 17.1079V9.05072C91.3123 8.76298 92.002 8.62851 92.6946 8.65862L92.8679 10.2182H93.0054C93.2445 9.28657 93.7944 8.49058 95.205 8.49058" fill="#EF373E"/>
<path d="M99.2365 15.7046C100.112 15.7046 100.456 15.4334 100.456 14.9233C100.456 13.5849 96.5378 14.2453 96.5378 11.2294C96.5378 9.49881 97.6525 8.48172 99.7326 8.48172C100.585 8.45993 101.428 8.6635 102.174 9.07134C102.515 9.71246 102.659 10.438 102.587 11.1586C101.813 10.6763 100.922 10.4066 100.007 10.3773C99.2693 10.3773 99.0452 10.6161 99.0452 11.023C99.0452 12.2759 102.981 11.6509 102.981 14.6492C102.981 16.8219 101.451 17.6179 99.3201 17.6179C98.4256 17.6392 97.5363 17.4776 96.7082 17.1433C96.3511 16.4718 96.2182 15.7062 96.3286 14.9558C97.2193 15.4427 98.2182 15.705 99.2365 15.7193" fill="#EF373E"/>
<path d="M117.556 7.1934H117.419C117.228 8.34091 116.957 9.47382 116.606 10.5837L114.559 17.1964C114.157 17.3354 113.731 17.3926 113.306 17.3644C112.892 17.3874 112.477 17.3303 112.084 17.1964L109.971 10.4982C109.627 9.419 109.375 8.31364 109.215 7.1934H109.078V17.1462C108.324 17.3939 107.509 17.3939 106.756 17.1462V5.32724C107.387 5.18865 108.033 5.12628 108.68 5.14152C109.333 5.1232 109.986 5.1856 110.623 5.32724L112.601 11.5684C112.936 12.6588 113.176 13.7752 113.318 14.9057H113.456C113.602 13.7902 113.825 12.686 114.125 11.6008L116.008 5.32724C116.645 5.18575 117.298 5.12336 117.951 5.14152C118.597 5.12611 119.244 5.18848 119.875 5.32724V17.1462C119.513 17.3009 119.118 17.3647 118.725 17.332C118.326 17.3608 117.926 17.2972 117.556 17.1462V7.1934Z" fill="#EF373E"/>
<path d="M126.25 16.3827C125.873 17.1285 125.054 17.6032 123.88 17.6032C122.368 17.6032 121.059 16.8573 121.059 14.8909C121.059 12.8272 122.574 12.0253 124.567 12.0253C125.097 12.0187 125.624 12.0933 126.13 12.2465V11.9988C126.13 10.964 125.613 10.5926 124.48 10.5926C123.517 10.5926 122.57 10.8373 121.731 11.3031C121.525 10.6427 121.608 9.59021 122.006 9.03301C122.625 8.69398 123.688 8.47287 124.962 8.47287C127.436 8.47287 128.622 9.33667 128.622 11.8455V14.7789C128.622 15.3066 128.865 15.4245 129.22 15.4245C129.481 15.4281 129.737 15.3575 129.958 15.2211C130.015 15.9119 129.859 16.6037 129.51 17.2052C129.084 17.4709 128.588 17.6063 128.085 17.5943C127.086 17.5943 126.572 17.1698 126.399 16.3738H126.262M126.193 13.865C125.832 13.7261 125.447 13.657 125.06 13.6616C124.062 13.6616 123.566 14.0684 123.566 14.7111C123.566 15.3538 124.065 15.5955 124.761 15.5955C125.031 15.611 125.302 15.566 125.552 15.4639C125.802 15.3618 126.025 15.2052 126.205 15.0059L126.193 13.865Z" fill="#EF373E"/>
<path d="M133.727 11.6863L135.753 8.8532C136.077 8.76045 136.414 8.71476 136.751 8.71758C137.309 8.68834 137.866 8.79996 138.368 9.04188L135.753 12.6179C136.65 14.1955 137.667 15.7034 138.795 17.1285C138.367 17.3065 137.902 17.3822 137.439 17.3497C136.897 17.3698 136.355 17.295 135.84 17.1285C135.006 16.0488 134.265 14.903 133.622 13.7028H132.866V17.1285C132.475 17.2876 132.052 17.3571 131.629 17.332C131.201 17.3538 130.772 17.2844 130.374 17.1285V5.10614C130.971 4.7848 131.766 4.61676 132.866 4.61676V11.6922H133.727" fill="#EF373E"/>
<path d="M142.095 5.88738C142.095 6.88679 141.497 7.42924 140.6 7.42924C139.62 7.42924 139.088 6.90448 139.088 5.90507C139.078 5.70724 139.11 5.50945 139.182 5.32471C139.255 5.13996 139.366 4.97246 139.509 4.83322C139.652 4.69397 139.823 4.58614 140.011 4.51682C140.199 4.4475 140.4 4.41826 140.6 4.43101C141.497 4.43101 142.095 4.95873 142.095 5.90507M139.345 8.97406C139.744 8.81818 140.172 8.7488 140.6 8.77064C141.023 8.7461 141.446 8.81562 141.838 8.97406V17.1285C141.446 17.287 141.023 17.3565 140.6 17.332C140.172 17.3538 139.744 17.2844 139.345 17.1285V8.97406Z" fill="#EF373E"/>
<path d="M145.944 17.1285C145.552 17.2876 145.129 17.3571 144.707 17.332C144.278 17.3538 143.85 17.2844 143.451 17.1285V9.05071C144.087 8.76314 144.782 8.62875 145.481 8.65861L145.618 10.0501H145.756C146.168 9.16569 147.044 8.49057 148.61 8.49057C149.916 8.49057 151.461 8.94753 151.461 11.7335V17.1285C151.069 17.2876 150.646 17.3571 150.223 17.332C149.796 17.3545 149.369 17.2851 148.971 17.1285V12.1787C148.971 11.2942 148.672 10.737 147.647 10.737C147.3 10.7223 146.955 10.8054 146.653 10.9766C146.352 11.1478 146.106 11.4001 145.944 11.704V17.1285Z" fill="#EF373E"/>
<path d="M153.663 14.145C152.856 13.635 152.549 12.6857 152.549 11.6509C152.549 9.54892 154.112 8.48171 156.275 8.48171C156.928 8.47046 157.577 8.58565 158.185 8.82074H160.659C160.876 9.39552 160.977 10.0062 160.958 10.6191H159.718V10.7016C159.92 11.0146 160.011 11.3846 159.978 11.7541C159.978 13.7028 158.585 14.8231 156.317 14.8231C155.991 14.8285 155.666 14.7827 155.355 14.6875C155.262 14.7496 155.187 14.8332 155.135 14.9309C155.083 15.0285 155.055 15.1373 155.056 15.2476C155.056 15.7223 155.639 15.8372 156.774 15.8372C159.231 15.8372 160.985 16.3119 160.985 18.5495C160.985 20.8402 159.192 21.7541 156.311 21.7541C153.699 21.7541 152.031 21.0259 152.031 19.0419C152.031 18.0248 152.581 17.2966 153.352 17.1079V16.99C153.122 16.8695 152.932 16.6847 152.808 16.4588C152.683 16.2329 152.628 15.9757 152.65 15.7193C152.627 15.4036 152.713 15.0895 152.894 14.8279C153.074 14.5663 153.339 14.3724 153.645 14.2777V14.1598M154.936 17.6503C154.753 17.7514 154.601 17.8991 154.496 18.0781C154.391 18.257 154.337 18.4606 154.339 18.6674C154.339 19.602 155.283 19.8467 156.505 19.8467C157.88 19.8467 158.654 19.49 158.654 18.6674C158.654 18.0395 158.188 17.783 156.401 17.783C155.913 17.8055 155.424 17.7558 154.951 17.6356L154.936 17.6503ZM156.257 13.0395C157.205 13.0395 157.686 12.5147 157.686 11.6657C157.686 10.8166 157.187 10.2918 156.257 10.2918C155.328 10.2918 154.814 10.8196 154.814 11.6657C154.814 12.5118 155.31 13.0247 156.272 13.0247L156.257 13.0395Z" fill="#EF373E"/>
<path d="M55.9778 24.8673C53.5541 24.8673 51.8895 26.0879 51.8895 29.0389C51.8895 31.99 53.5391 33.1663 55.8582 33.1663C56.8487 33.156 57.8282 32.961 58.7451 32.5914C58.7373 33.3922 58.499 34.1744 58.0578 34.8467C57.1092 35.2615 56.0798 35.4658 55.0424 35.4452C51.3635 35.4452 49.1998 33.1073 49.1998 29.207C49.1998 25.0029 51.7251 22.612 55.4369 22.612C56.4171 22.612 57.4123 22.7801 58.0488 23.1545C58.4561 23.852 58.6248 24.6604 58.53 25.4599C57.7361 25.0647 56.858 24.8626 55.9688 24.8703" fill="#EF373E"/>
<path d="M62.3194 34.9204C61.9277 35.0791 61.5048 35.1487 61.0821 35.1238C60.6538 35.1456 60.2257 35.0763 59.827 34.9204V22.9068C60.4247 22.5855 61.2196 22.4145 62.3194 22.4145V24.9911C62.3223 25.9223 62.2474 26.8522 62.0952 27.7712H62.2357C62.6123 26.9251 63.4311 26.2795 65.018 26.2795C66.3599 26.2795 67.9228 26.7394 67.9228 29.5224V34.9145C67.5311 35.0729 67.1083 35.1425 66.6856 35.1179C66.2573 35.1398 65.8292 35.0704 65.4304 34.9145V29.9823C65.4304 29.0979 65.1047 28.5082 64.0736 28.5082C63.7153 28.494 63.3603 28.5803 63.0497 28.7573C62.7392 28.9342 62.486 29.1944 62.3194 29.5077V34.9322" fill="#EF373E"/>
<path d="M73.9387 34.1745C73.5592 34.9204 72.7433 35.395 71.5658 35.395C70.0537 35.395 68.7477 34.6492 68.7477 32.6828C68.7477 30.6191 70.2599 29.8172 72.2532 29.8172C72.7827 29.8101 73.3101 29.8847 73.8162 30.0383V29.8025C73.8162 28.7677 73.3022 28.3933 72.1665 28.3933C71.203 28.3933 70.2559 28.6391 69.4171 29.1067C69.2109 28.4434 69.2976 27.3939 69.6921 26.8337C70.3107 26.4947 71.3776 26.2736 72.6477 26.2736C75.1252 26.2736 76.3086 27.1403 76.3086 29.6492V32.5826C76.3086 33.1073 76.5507 33.2252 76.9063 33.2252C77.1672 33.2297 77.4237 33.159 77.6445 33.0218C77.695 33.7095 77.5357 34.3964 77.1872 34.9941C76.7609 35.261 76.2635 35.3965 75.7587 35.3833C74.7636 35.3833 74.2465 34.9617 74.0762 34.1627H73.9387M73.87 31.6539C73.5081 31.5151 73.1226 31.446 72.7344 31.4505C71.7392 31.4505 71.2401 31.8573 71.2401 32.5029C71.2401 33.1486 71.7392 33.3874 72.4355 33.3874C72.7056 33.4029 72.9758 33.3579 73.2257 33.2558C73.4757 33.1537 73.699 32.9971 73.879 32.7978L73.87 31.6539Z" fill="#EF373E"/>
<path d="M80.639 34.9204C80.2474 35.0794 79.8244 35.149 79.4017 35.1238C78.9734 35.1457 78.5453 35.0763 78.1465 34.9204V26.8337C78.7826 26.5487 79.4778 26.4154 80.1757 26.4446L80.3132 27.8331H80.4447C80.8571 26.9487 81.7328 26.2736 83.2987 26.2736C84.6047 26.2736 86.1498 26.7335 86.1498 29.5165V34.9086C85.7582 35.0676 85.3352 35.1372 84.9125 35.112C84.4842 35.1339 84.0561 35.0645 83.6574 34.9086V29.9823C83.6574 29.0979 83.3585 28.5407 82.3364 28.5407C81.9889 28.5266 81.6444 28.61 81.343 28.7812C81.0415 28.9523 80.7953 29.2042 80.633 29.5077V34.9322" fill="#EF373E"/>
<path d="M88.3553 31.9369C87.5484 31.4269 87.2376 30.4776 87.2376 29.4457C87.2376 27.3437 88.8036 26.2736 90.9673 26.2736C91.6202 26.2623 92.269 26.3775 92.8769 26.6126H95.3514C95.5674 27.1875 95.6689 27.7981 95.6502 28.411H94.41V28.5082C94.6125 28.8199 94.704 29.1891 94.67 29.5578C94.67 31.5094 93.2774 32.6268 91.0091 32.6268C90.6831 32.6321 90.3583 32.5863 90.0468 32.4911C89.9546 32.5535 89.8791 32.6371 89.827 32.7347C89.775 32.8323 89.7478 32.941 89.7479 33.0513C89.7479 33.5259 90.3307 33.6262 91.4663 33.6262C93.9229 33.6262 95.6771 34.1008 95.6771 36.3414C95.6771 38.6291 93.884 39.546 91.0031 39.546C88.3882 39.546 86.7236 38.8148 86.7236 36.8308C86.7236 35.8137 87.2735 35.0855 88.0445 34.8998V34.7818C87.8145 34.6599 87.6256 34.4745 87.5009 34.2483C87.3761 34.0221 87.321 33.7649 87.3422 33.5082C87.3194 33.1925 87.4053 32.8785 87.5859 32.6168C87.7664 32.3552 88.0312 32.1614 88.3374 32.0666V31.9487M89.6284 35.4422C89.445 35.5427 89.2926 35.6904 89.1874 35.8695C89.0821 36.0485 89.028 36.2523 89.0307 36.4593C89.0307 37.3909 89.9751 37.6385 91.1974 37.6385C92.5721 37.6385 93.3461 37.2848 93.3461 36.4593C93.3461 35.8314 92.8799 35.5749 91.0928 35.5749C90.6061 35.5966 90.1187 35.548 89.6463 35.4304L89.6284 35.4422ZM90.9493 30.8284C91.8967 30.8284 92.3778 30.3036 92.3778 29.4575C92.3778 28.6114 91.8787 28.0837 90.9493 28.0837C90.0199 28.0837 89.5059 28.6085 89.5059 29.4575C89.5059 30.3066 90.0079 30.8166 90.9673 30.8166L90.9493 30.8284Z" fill="#EF373E"/>
<path d="M98.3578 31.6332C98.4624 32.8125 99.3201 33.4021 101.024 33.4021C101.946 33.4118 102.86 33.2384 103.713 32.8921C103.746 33.5832 103.526 34.263 103.095 34.8084C102.253 35.224 101.319 35.4267 100.378 35.398C97.3716 35.398 95.7728 33.6881 95.7728 30.9404C95.7728 28.1073 97.4912 26.2765 100.19 26.2765C102.697 26.2765 103.851 27.8036 103.851 30.0413C103.848 30.583 103.761 31.1211 103.591 31.6362H98.3578M101.502 29.8673C101.639 28.9829 101.313 28.1191 100.076 28.1191C99.0123 28.1191 98.3578 28.7972 98.2831 29.8673H101.502Z" fill="#EF373E"/>
</g>
<defs>
<clipPath id="clip0_242_597">
<rect width="161" height="50" fill="white"/>
</clipPath>
</defs>
</svg>
