<svg width="258" height="61" viewBox="0 0 258 61" fill="none" xmlns="http://www.w3.org/2000/svg">
<g clip-path="url(#clip0_146_2220)">
<path d="M8.57817 34.7415C10.5867 36.6889 12.7797 38.4368 15.1264 39.9604C16.5364 40.8664 18.0205 41.6518 19.5628 42.3082C16.6677 39.7771 14.7722 36.2959 14.2178 32.4919C12.9327 26.0868 13.2438 15.6651 22.0266 2.38863L23.3772 0.384471C23.3772 0.253587 23.3117 0.122704 23.2871 0C19.987 0.774781 16.8372 2.08756 13.9641 3.88561C14.9091 5.29808 15.3361 6.99373 15.1728 8.68498C15.0094 10.3762 14.2658 11.959 13.0679 13.1647C11.8701 14.3705 10.2918 15.1251 8.60071 15.3005C6.90964 15.476 5.20991 15.0614 3.78978 14.1273C2.04523 16.9594 0.76577 20.0526 0 23.2891C1.66106 23.6299 3.15362 24.533 4.22579 25.8459C5.29795 27.1589 5.88406 28.8012 5.88522 30.4959C5.8734 30.936 5.82134 31.3741 5.7297 31.8047C6.77741 32.9745 7.67779 33.9071 8.54543 34.7415" fill="white"/>
<path d="M46.8689 3.73837C44.0592 2.01604 40.9919 0.753979 37.7832 0C37.4784 1.69683 36.5835 3.23148 35.2566 4.33307C33.9297 5.43466 32.256 6.03236 30.5311 6.02065C29.2621 6.019 28.0151 5.68979 26.9108 5.06492C25.8066 4.44006 24.8826 3.54072 24.2284 2.45407C22.3679 5.20633 20.6864 8.07533 19.1945 11.0433C17.9675 13.5646 16.9836 16.1969 16.2559 18.9045C15.8296 20.513 15.5421 22.1551 15.3965 23.8127C16.7392 20.6991 19.0307 18.0883 21.9447 16.3523L22.4031 16.1069L22.6323 15.9924C27.1669 13.3092 35.0575 10.528 46.9589 12.3113C46.0382 11.0756 45.5335 9.57996 45.5173 8.03946C45.5011 6.49896 45.9744 4.99304 46.8689 3.73837Z" fill="white"/>
<path d="M18.2859 56.3127C21.5552 55.1355 24.7435 53.7446 27.8299 52.1489C30.3083 50.8331 32.6546 49.2827 34.8365 47.5189C36.1433 46.4609 37.359 45.2952 38.4708 44.0341C35.7935 45.6259 32.7106 46.4047 29.598 46.2755C28.9727 46.2455 28.3496 46.18 27.7317 46.0792C22.2803 45.5229 13.915 42.9134 5.1158 33.7679C4.61888 34.7704 3.89989 35.6465 3.01345 36.3297C2.12701 37.0129 1.09644 37.4852 0 37.7108C0.765521 40.9449 2.04503 44.0354 3.78978 46.8645C5.21052 45.9267 6.91246 45.5096 8.60615 45.6843C10.2998 45.859 11.8807 46.6146 13.0798 47.8226C14.279 49.0307 15.0224 50.6166 15.1836 52.3105C15.3448 54.0045 14.9139 55.702 13.9641 57.1143L14.7089 57.5561C16.2314 57.0325 18.0813 56.3945 18.2859 56.3127Z" fill="white"/>
<path d="M31.6852 14.1519C32.513 14.2298 33.3338 14.3692 34.1408 14.5691C36.9217 15.2724 39.4646 16.704 41.5076 18.7164C50.2413 26.5367 52.4595 38.8562 52.967 45.6539C54.4753 45.666 55.9427 46.1462 57.166 47.0282C58.9541 44.1717 60.2671 41.0445 61.054 37.7682C59.3261 37.4895 57.7539 36.605 56.6191 35.2732C55.4844 33.9414 54.8612 32.2493 54.8612 30.5001C54.8612 28.7508 55.4844 27.0588 56.6191 25.727C57.7539 24.3952 59.3261 23.5107 61.054 23.2319C60.2764 19.9565 58.9716 16.8291 57.1906 13.9719C56.6767 14.3241 56.1282 14.6229 55.5535 14.8635C54.9455 15.0949 54.3098 15.2461 53.6627 15.3135C53.0133 15.378 52.3582 15.356 51.7146 15.248C50.5932 15.068 49.521 14.6509 48.4405 14.43C47.3601 14.2091 46.2059 13.9883 45.0845 13.841C42.3064 13.4474 39.4966 13.3242 36.6946 13.4729C35.0406 13.5678 33.3976 13.8032 31.7835 14.1764" fill="white"/>
<path d="M50.3722 39.2243C49.8859 36.4619 49.1349 33.7527 48.1295 31.134C47.5167 29.5778 46.7747 28.0756 45.9113 26.6431C46.4805 29.1086 46.4552 31.6741 45.8376 34.128C45.5401 35.2766 45.1203 36.39 44.5852 37.4492C39.4694 48.9178 27.2734 54.9058 20.4632 57.458L17.0009 58.775C19.0113 59.7377 21.1186 60.4836 23.2871 61C23.5956 59.3035 24.4901 57.7691 25.8147 56.6642C27.1393 55.5593 28.8099 54.9541 30.5352 54.9541C32.2606 54.9541 33.9312 55.5593 35.2557 56.6642C36.5803 57.7691 37.4748 59.3035 37.7833 61C40.9916 60.237 44.0583 58.9696 46.8689 57.2453C46.1826 56.2644 45.746 55.131 45.5969 53.9434C45.4478 52.7557 45.5906 51.5497 46.0131 50.4297C46.4356 49.3097 47.1249 48.3095 48.0214 47.5158C48.9179 46.7221 49.9946 46.1589 51.158 45.8748C51.0053 43.6448 50.7321 41.4247 50.3395 39.2243" fill="white"/>
<path d="M94.9492 44.9095C93.6814 44.9582 92.4132 44.8232 91.184 44.5087L82.9333 29.5307C81.7592 27.2044 80.9135 24.7268 80.4204 22.1685H80.093V44.386C79.1754 44.7814 78.1752 44.9471 77.179 44.8686C76.1967 44.9351 75.2125 44.7698 74.306 44.386V16.1396C75.6212 15.8404 76.9681 15.7031 78.3168 15.7306C79.652 15.6981 80.9861 15.8355 82.2866 16.1396L90.0954 30.3405C91.2619 32.691 92.1202 35.1819 92.6492 37.7518H92.9766V16.2541C93.8805 15.8614 94.8669 15.6957 95.8496 15.7715C96.8317 15.7092 97.8149 15.8744 98.7227 16.2541V44.5087C97.4925 44.8177 96.2251 44.9526 94.9574 44.9095M112.335 45.523C105.246 45.523 101.481 41.4329 101.481 34.8887C101.481 28.1318 105.574 23.7636 111.885 23.7636C117.803 23.7636 120.512 27.4038 120.512 32.7619C120.507 34.0534 120.302 35.3364 119.906 36.5657H107.628C107.866 39.4042 109.896 40.7785 113.906 40.7785C116.073 40.8016 118.223 40.387 120.225 39.5596C120.299 41.2099 119.78 42.8321 118.76 44.1324C116.781 45.1309 114.584 45.6202 112.368 45.5557M107.456 32.3201H115.028C115.355 30.2178 114.586 28.1482 111.672 28.1482C109.159 28.1482 107.579 29.7842 107.456 32.3201ZM129 24.9088C128.077 24.5332 127.081 24.3683 126.086 24.4262C125.078 24.3737 124.07 24.5383 123.131 24.9088V44.386C124.069 44.7605 125.078 44.9253 126.086 44.8686C127.081 44.9316 128.078 44.7665 129 44.386V24.9088ZM122.517 17.6284C122.517 20.017 123.778 21.2686 126.086 21.2686C128.19 21.2686 129.606 19.9761 129.606 17.5875C129.638 17.1188 129.568 16.6488 129.402 16.2093C129.236 15.7698 128.977 15.3712 128.643 15.0405C128.31 14.7099 127.908 14.455 127.467 14.2932C127.026 14.1314 126.555 14.0664 126.086 14.1027C125.613 14.072 125.139 14.1418 124.694 14.3076C124.25 14.4733 123.846 14.7313 123.509 15.0644C123.172 15.3975 122.909 15.7982 122.738 16.2402C122.567 16.6821 122.492 17.1553 122.517 17.6284ZM141.433 44.6232C142.302 43.0836 142.698 41.3225 142.571 39.5596C141.846 40.0471 140.989 40.3011 140.116 40.2877C138.937 40.2877 138.413 39.8868 138.413 38.349V14.5199C136.389 14.4086 134.37 14.811 132.544 15.6897V39.2897C132.544 42.889 133.756 45.523 137.807 45.523C139.084 45.553 140.345 45.2303 141.45 44.5905M168.83 36.173C168.83 25.686 155.422 28.639 155.422 23.0846C155.422 21.2195 156.756 20.1316 159.752 20.1316C162.5 20.1778 165.186 20.9603 167.528 22.3975C167.741 20.4684 167.346 18.521 166.399 16.8268C164.227 15.5989 161.763 14.9825 159.269 15.0435C153.032 15.0435 149.226 18.0783 149.226 23.8699C149.226 34.2261 162.707 31.0276 162.707 36.9583C162.707 39.1015 161.291 40.4758 157.689 40.4758C154.526 40.4365 151.417 39.6458 148.62 38.169C148.37 40.1921 148.75 42.243 149.709 44.0424C152.247 45.1605 154.997 45.7185 157.771 45.6784C163.886 45.6784 168.789 43.3225 168.789 36.2057M190.169 54.2022C189.247 54.5856 188.251 54.7535 187.255 54.6931C186.243 54.7467 185.232 54.5792 184.292 54.2022V49.1223C184.276 46.859 184.454 44.5985 184.824 42.3654H184.496C183.768 44.0015 181.91 45.523 178.709 45.523C174.576 45.523 170.524 42.8481 170.524 35.4859C170.524 27.7883 174.977 23.7472 182.188 23.7472C184.987 23.6731 187.747 24.418 190.128 25.8905L190.169 54.2022ZM184.373 38.4635V29.0071C183.634 28.6843 182.831 28.5332 182.024 28.5654C178.259 28.5654 176.597 30.9458 176.597 34.9133C176.597 38.6434 178.022 40.2958 180.649 40.2958C181.38 40.3194 182.104 40.1577 182.756 39.8259C183.407 39.494 183.963 39.0028 184.373 38.398M212.04 44.1815V24.8761C211.113 24.5006 210.115 24.3357 209.118 24.3935C208.109 24.342 207.102 24.5066 206.163 24.8761V38.3571C205.696 38.9312 205.101 39.3879 204.426 39.6905C203.751 39.9931 203.014 40.1332 202.275 40.0995C199.925 40.0995 199.238 38.8807 199.238 36.6965V24.189C197.21 24.0954 195.192 24.5146 193.369 25.4078V37.7109C193.369 44.4269 196.93 45.523 200.089 45.523C203.65 45.523 205.557 44.0997 206.449 42.2509H206.768L207.464 45.0813C209.043 45.1525 210.615 44.8321 212.04 44.1487M214.913 17.563C214.913 19.9516 216.165 21.2032 218.473 21.2032C220.577 21.2032 222.001 19.9107 222.001 17.5221C222.033 17.0526 221.964 16.5818 221.797 16.1417C221.631 15.7016 221.371 15.3025 221.036 14.9718C220.701 14.641 220.299 14.3863 219.857 14.225C219.415 14.0638 218.943 13.9997 218.473 14.0373C218.001 14.0065 217.527 14.0763 217.083 14.2421C216.639 14.4079 216.236 14.666 215.899 14.9992C215.562 15.3325 215.3 15.7333 215.13 16.1753C214.96 16.6172 214.886 17.0902 214.913 17.563ZM221.387 44.3532V24.8761C220.464 24.5005 219.468 24.3356 218.473 24.3935C217.465 24.341 216.457 24.5056 215.518 24.8761V44.386C216.456 44.7605 217.465 44.9253 218.473 44.8686C219.469 44.9316 220.465 44.7665 221.387 44.386M235.441 23.7472C232.118 23.7472 230.825 25.645 230.26 27.8374H229.933L229.532 24.189C227.9 24.118 226.275 24.4377 224.792 25.1215V44.4269C225.73 44.8014 226.739 44.9662 227.747 44.9095C228.743 44.9725 229.739 44.8074 230.661 44.4269V33.0972C231.431 30.9867 232.969 29.5716 235.04 29.5716C236.017 29.5293 236.986 29.7678 237.831 30.2587C238.1 29.4694 238.225 28.6381 238.2 27.8046C238.258 26.5268 237.975 25.2566 237.381 24.1235C236.78 23.8641 236.129 23.7412 235.474 23.7636M249.856 45.5394C242.767 45.5394 239.002 41.4493 239.002 34.9051C239.002 28.1482 243.046 23.78 249.405 23.78C255.323 23.78 258.033 27.4202 258.033 32.7782C258.028 34.0697 257.823 35.3527 257.427 36.582H245.149C245.386 39.4206 247.416 40.7948 251.427 40.7948C253.592 40.8188 255.738 40.4042 257.738 39.576C257.784 41.2194 257.238 42.8246 256.199 44.0997C254.22 45.0982 252.023 45.5874 249.807 45.523M244.895 32.2874H252.467C252.794 30.1851 252.025 28.1155 249.103 28.1155C246.598 28.1155 245.059 29.7515 244.895 32.2874Z" fill="white"/>
</g>
<defs>
<clipPath id="clip0_146_2220">
<rect width="258" height="61" fill="white"/>
</clipPath>
</defs>
</svg>
