<svg width="32" height="32" viewBox="0 0 32 32" fill="none" xmlns="http://www.w3.org/2000/svg">
<path d="M7.71434 21.633L8.24467 22.1633L7.71434 21.633ZM22.6837 11.8358L22.5534 12.5744L22.6837 11.8358ZM19.6043 15.4869L19.8493 14.778L19.6043 15.4869ZM16.5138 12.3979L17.2225 12.1525L16.5138 12.3979ZM16.3964 12.9509L15.8661 12.4206L16.3964 12.9509ZM20.1569 9.30901L19.4183 9.43935L20.1569 9.30901ZM20.8806 11.5176L20.7502 12.2562L20.8806 11.5176ZM20.4751 11.1121L19.7365 11.2425L20.4751 11.1121ZM21.9981 6.10551L19.7654 8.33823L20.826 9.39889L23.0588 7.16617L21.9981 6.10551ZM18.2345 7.74783C19.3031 6.67921 20.7988 6.29697 22.175 6.60419L22.5018 5.14022C20.6457 4.72587 18.6205 5.24049 17.1738 6.68717L18.2345 7.74783ZM17.2225 12.1525C16.7054 10.6591 17.0442 8.93811 18.2345 7.74783L17.1738 6.68717C15.5621 8.29891 15.1072 10.6278 15.805 12.6433L17.2225 12.1525ZM8.24467 22.1633L16.9267 13.4812L15.8661 12.4206L7.18401 21.1026L8.24467 22.1633ZM8.24467 23.7569C7.80459 23.3169 7.80459 22.6034 8.24467 22.1633L7.18401 21.1026C6.15815 22.1285 6.15815 23.7917 7.18401 24.8176L8.24467 23.7569ZM9.83833 23.7569C9.39825 24.197 8.68475 24.197 8.24467 23.7569L7.18401 24.8176C8.20987 25.8435 9.87312 25.8435 10.899 24.8176L9.83833 23.7569ZM18.5213 15.074L9.83833 23.7569L10.899 24.8176L19.5819 16.1347L18.5213 15.074ZM24.252 13.7653C23.0622 14.9551 21.3423 15.2941 19.8493 14.778L19.3593 16.1957C21.3741 16.8922 23.7016 16.437 25.3126 14.826L24.252 13.7653ZM25.3932 9.81418C25.7048 11.1933 25.3233 12.694 24.252 13.7653L25.3126 14.826C26.763 13.3756 27.2766 11.3437 26.8564 9.48364L25.3932 9.81418ZM23.6545 12.2273L25.8916 9.9902L24.8309 8.92954L22.5938 11.1667L23.6545 12.2273ZM20.7502 12.2562L22.5534 12.5744L22.814 11.0972L21.0109 10.779L20.7502 12.2562ZM19.4183 9.43935L19.7365 11.2425L21.2137 10.9818L20.8955 9.17867L19.4183 9.43935ZM22.5938 11.1667C22.6515 11.109 22.7337 11.0831 22.814 11.0972L22.5534 12.5744C22.955 12.6453 23.366 12.5157 23.6545 12.2273L22.5938 11.1667ZM26.8564 9.48364C26.6244 8.45677 25.4291 8.33136 24.8309 8.92954L25.8916 9.9902C25.8321 10.0497 25.7362 10.0806 25.6366 10.0571C25.5262 10.0311 25.4211 9.9373 25.3932 9.81418L26.8564 9.48364ZM19.5819 16.1347C19.503 16.2136 19.4105 16.2134 19.3593 16.1957L19.8493 14.778C19.4132 14.6273 18.8881 14.7071 18.5213 15.074L19.5819 16.1347ZM15.805 12.6433C15.7873 12.5921 15.7871 12.4995 15.8661 12.4206L16.9267 13.4812C17.2938 13.1142 17.3735 12.5888 17.2225 12.1525L15.805 12.6433ZM19.7654 8.33823C19.477 8.62666 19.3474 9.03766 19.4183 9.43935L20.8955 9.17867C20.9096 9.25901 20.8837 9.34121 20.826 9.39889L19.7654 8.33823ZM21.0109 10.779C21.1144 10.7973 21.1954 10.8783 21.2137 10.9818L19.7365 11.2425C19.8278 11.7598 20.2329 12.1649 20.7502 12.2562L21.0109 10.779ZM23.0588 7.16617C23.6576 6.56737 23.531 5.36996 22.5018 5.14022L22.175 6.60419C22.0517 6.57665 21.9575 6.4715 21.9313 6.36093C21.9076 6.26114 21.9386 6.16503 21.9981 6.10551L23.0588 7.16617Z" fill="#2C2E34"/>
<path d="M8.35667 10.8515L6.41213 8.55345L6.76568 8.19989L9.06378 10.1444L8.35667 10.8515Z" stroke="#2C2E34" stroke-width="1.5" stroke-linecap="round" stroke-linejoin="round"/>
<path d="M6.94238 8.73022L13.5892 15.377" stroke="#2C2E34" stroke-width="1.5" stroke-linecap="round" stroke-linejoin="round"/>
<path d="M15.5347 20.1509C15.2248 19.841 15.2248 19.3387 15.5347 19.0288L17.0289 17.5346C17.3387 17.2247 17.8411 17.2247 18.151 17.5346L22.4533 21.837C23.1758 22.5594 23.1758 23.7308 22.4533 24.4533V24.4533C21.7309 25.1757 20.5595 25.1757 19.837 24.4533L15.5347 20.1509Z" stroke="#2C2E34" stroke-width="1.5"/>
</svg>
