<?xml version="1.0" encoding="iso-8859-1"?>
<!-- Generator: Adobe Illustrator 19.0.0, SVG Export Plug-In . SVG Version: 6.00 Build 0)  -->
<svg version="1.1" id="Capa_1" xmlns="http://www.w3.org/2000/svg" xmlns:xlink="http://www.w3.org/1999/xlink" x="0px" y="0px"
	 viewBox="0 0 512 512" style="enable-background:new 0 0 512 512;" xml:space="preserve">
<circle style="fill:#0066AA;" cx="256" cy="256" r="256"/>
<path style="fill:#1E2D64;" d="M161.864,416.067l95.91,95.91c139.95-0.952,253.212-114.191,254.202-254.132L358.353,104.222
	L161.864,416.067z"/>
<path style="fill:#FFFFFF;" d="M256,453.034L256,453.034c-76.423,0-138.375-61.953-138.375-138.375V197.341
	c0-76.422,61.953-138.375,138.375-138.375l0,0c76.422,0,138.375,61.953,138.375,138.375v117.318
	C394.375,391.082,332.423,453.034,256,453.034z"/>
<g>
	<path style="fill:#E0E0E0;" d="M256,58.966L256,58.966c-0.016,0-0.032,0-0.048,0v394.067c0.016,0,0.031,0,0.048,0l0,0
		c76.423,0,138.375-61.953,138.375-138.375V197.341C394.375,120.918,332.423,58.966,256,58.966z"/>
	<path style="fill:#E0E0E0;" d="M256,58.966L256,58.966c-76.309,0-138.187,61.769-138.371,138.034h276.742
		C394.187,120.735,332.309,58.966,256,58.966z"/>
</g>
<path style="fill:#C0C0C0;" d="M256,58.966c-0.016,0-0.032,0-0.048,0V197H394.37C394.187,120.735,332.309,58.966,256,58.966z"/>
<path style="fill:#333333;" d="M256,225.705L256,225.705c-13.445,0-24.344-10.899-24.344-24.344V158.64
	c0-13.445,10.899-24.344,24.344-24.344l0,0c13.445,0,24.344,10.899,24.344,24.344v42.721
	C280.344,214.806,269.445,225.705,256,225.705z"/>
<path style="fill:#1A1A1A;" d="M256,134.295L256,134.295c-0.016,0-0.032,0.001-0.048,0.001v91.407c0.016,0,0.031,0.001,0.048,0.001
	l0,0c13.445,0,24.344-10.899,24.344-24.345v-42.721C280.344,145.194,269.445,134.295,256,134.295z"/>
<g>
</g>
<g>
</g>
<g>
</g>
<g>
</g>
<g>
</g>
<g>
</g>
<g>
</g>
<g>
</g>
<g>
</g>
<g>
</g>
<g>
</g>
<g>
</g>
<g>
</g>
<g>
</g>
<g>
</g>
</svg>
