<svg width="168" height="140" viewBox="0 0 168 140" fill="none" xmlns="http://www.w3.org/2000/svg">
<path d="M104.985 1.81275C83.1118 -1.01681 65.1843 9.75962 45.8813 27.901C30.2173 42.6107 4.77817 43.5806 3.27586 67.0333C1.45306 95.5831 48.7657 97.8775 62.7005 111.678C99.7441 148.469 147.704 143.592 160.097 109.818C171.134 79.7563 153.166 65.7556 146.83 46.4102C137.662 18.5226 128.068 4.79617 104.985 1.81275Z" fill="#E5E3FC"/>
<path d="M74.3053 86.4924L52.6587 113.651C51.498 115.096 49.8137 116.022 47.9736 116.228C46.1335 116.434 44.2869 115.901 42.837 114.748C41.3931 113.585 40.4669 111.897 40.2605 110.052C40.0541 108.207 40.5843 106.356 41.7353 104.901L63.3819 77.7495" fill="#E5E3FC"/>
<path d="M93.3948 97.3157C113.024 97.3157 128.936 81.3739 128.936 61.7086C128.936 42.0434 113.024 26.1016 93.3948 26.1016C73.7659 26.1016 57.8535 42.0434 57.8535 61.7086C57.8535 81.3739 73.7659 97.3157 93.3948 97.3157Z" fill="white"/>
<path d="M77.5305 93.0279L55.8906 120.18C54.7297 121.627 53.0441 122.555 51.2023 122.76C49.3606 122.966 47.5125 122.432 46.0622 121.277C44.6177 120.114 43.6917 118.425 43.4865 116.58C43.2813 114.735 43.8136 112.883 44.9671 111.43L68.1094 82.3116" fill="white"/>
<path d="M62.0871 31.1252C56.8293 37.6986 53.9559 45.8662 53.9376 54.2897C53.9193 62.7133 56.7573 70.8933 61.9866 77.4895C67.2159 84.0857 74.5264 88.7069 82.7202 90.596C90.9141 92.4851 99.5054 91.53 107.087 87.8873C114.668 84.2445 120.789 78.1301 124.448 70.5458C128.107 62.9616 129.086 54.3573 127.225 46.1426C125.363 37.928 120.773 30.5902 114.204 25.3315C107.636 20.0728 99.4797 17.2051 91.0717 17.1981C85.5037 17.1726 80.0025 18.4127 74.9821 20.825C69.9616 23.2374 65.5527 26.7591 62.0871 31.1252ZM91.0717 20.2351C98.7749 20.2481 106.246 22.881 112.26 27.7027C118.275 32.5245 122.478 39.2493 124.18 46.7761C125.882 54.3029 124.982 62.1857 121.629 69.1337C118.276 76.0817 112.667 81.6831 105.722 85.021C98.7761 88.3588 90.9052 89.2351 83.3976 87.5065C75.8901 85.7778 69.1908 81.5467 64.3967 75.5058C59.6026 69.4649 56.9979 61.9723 57.0089 54.2547C57.0199 46.5372 59.6461 39.0521 64.4575 33.025C67.6515 29.0292 71.7023 25.8048 76.3094 23.5908C80.9165 21.3767 85.9619 20.2298 91.0717 20.2351Z" fill="#26225E"/>
<path d="M47.1765 117.424C45.6467 117.417 44.1497 116.979 42.8569 116.159C41.5641 115.34 40.5278 114.172 39.8666 112.79C39.2054 111.408 38.946 109.867 39.1182 108.344C39.2903 106.821 39.8871 105.378 40.8401 104.179L62.48 77.0271L64.2828 78.4653L42.6362 105.624C41.7076 106.84 41.2916 108.372 41.4774 109.892C41.6632 111.411 42.4359 112.798 43.63 113.753C44.824 114.709 46.3443 115.158 47.8648 115.004C49.3853 114.849 50.7849 114.104 51.7636 112.928L73.4035 85.7767L75.2063 87.2149L53.5597 114.387C52.8926 115.225 52.0666 115.922 51.1292 116.439C50.1918 116.956 49.1616 117.281 48.098 117.397C47.7915 117.423 47.4839 117.431 47.1765 117.424Z" fill="#26225E"/>
<path d="M87.7957 52.832L77.4727 61.0526L79.2633 63.3096L89.5864 55.0889L87.7957 52.832Z" fill="#26225E"/>
<path d="M79.2649 52.8297L77.4746 55.0869L87.7991 63.3058L89.5893 61.0485L79.2649 52.8297Z" fill="#26225E"/>
<path d="M87.9208 79.6024C87.5612 79.6016 87.2107 79.4885 86.9183 79.2789C86.6258 79.0692 86.4059 78.7734 86.2891 78.4326C86.1723 78.0919 86.1644 77.7231 86.2666 77.3777C86.3688 77.0322 86.5759 76.7273 86.8592 76.5053C89.6007 74.4224 92.9352 73.2723 96.3756 73.223C99.8159 73.1736 103.182 74.2276 105.982 76.231C106.305 76.5137 106.511 76.9067 106.56 77.3335C106.609 77.7602 106.497 78.1899 106.247 78.5386C105.996 78.8873 105.625 79.1299 105.206 79.219C104.786 79.3081 104.349 79.2373 103.979 79.0205C101.836 77.489 99.2667 76.67 96.6342 76.6792C93.8824 76.6628 91.203 77.5615 89.0158 79.2345C88.7039 79.4798 88.3172 79.6097 87.9208 79.6024Z" fill="#26225E"/>
<path d="M113.468 52.8353L103.145 61.0559L104.935 63.3129L115.258 55.0922L113.468 52.8353Z" fill="#26225E"/>
<path d="M104.937 52.8271L103.146 55.0844L113.471 63.3032L115.261 61.0459L104.937 52.8271Z" fill="#26225E"/>
<path d="M73.5772 47.9355C73.261 47.9344 72.9511 47.8466 72.6813 47.6814C72.4115 47.5163 72.192 47.2802 72.0468 46.9988C71.9015 46.7174 71.8361 46.4016 71.8575 46.0855C71.8789 45.7695 71.9864 45.4654 72.1683 45.2062C72.5222 44.7045 72.8828 44.2162 73.27 43.7346C78.2166 37.5096 85.4144 33.4906 93.3008 32.5501C93.5257 32.5225 93.7539 32.5394 93.9722 32.6001C94.1906 32.6608 94.3949 32.7639 94.5734 32.9037C94.752 33.0434 94.9013 33.2171 95.0129 33.4146C95.1245 33.6122 95.1961 33.8299 95.2238 34.0552C95.2514 34.2805 95.2344 34.5091 95.1739 34.7279C95.1133 34.9466 95.0104 35.1513 94.8709 35.3302C94.7314 35.5091 94.5581 35.6587 94.3608 35.7705C94.1636 35.8823 93.9464 35.9541 93.7215 35.9817C86.7379 36.8231 80.3665 40.3873 75.9875 45.9019C75.647 46.3234 75.3199 46.7582 75.0127 47.1996C74.8515 47.4303 74.6364 47.618 74.3862 47.7462C74.136 47.8745 73.8582 47.9395 73.5772 47.9355Z" fill="white"/>
</svg>
