<svg width="80" height="80" viewBox="0 0 80 80" fill="none" xmlns="http://www.w3.org/2000/svg">
    <path d="M80 39.9998C80 54.2905 72.376 67.4958 60 74.6412C47.624 81.7865 32.376 81.7865 20 74.6412C7.624 67.4958 0 54.2905 0 39.9998C0 25.7092 7.624 12.5038 20 5.35851C32.376 -1.78682 47.624 -1.78682 60 5.35851C72.376 12.5038 80 25.7092 80 39.9998Z" fill="#26215D"/>
    <path d="M62.7103 54.4167L61.2359 49.9862C60.6054 48.1162 59.189 46.6152 57.3585 45.8771C55.5283 45.1391 53.4669 45.2378 51.7155 46.1472L44.9095 39.3412L52.3702 31.3352C52.6666 31.6214 53.0637 31.7797 53.4757 31.7766C53.8879 31.7732 54.2822 31.6086 54.5743 31.3177L55.6873 32.4307V32.431C55.3923 32.726 55.2264 33.1266 55.2264 33.544C55.2264 33.9614 55.3923 34.362 55.6873 34.657L56.8003 35.77V35.7702C57.0957 36.0655 57.4962 36.2314 57.9139 36.2314C58.3316 36.2314 58.7321 36.0655 59.0274 35.7702L62.3667 32.4309C62.6618 32.1356 62.8277 31.735 62.8277 31.3176C62.8277 30.9002 62.6618 30.4999 62.3667 30.2046L61.2545 29.0908C60.9592 28.7955 60.5586 28.6299 60.1412 28.6299C59.7238 28.6299 59.3235 28.7955 59.0282 29.0908L57.9144 27.9778V27.9776C58.2097 27.6823 58.3756 27.2817 58.3756 26.8643C58.3756 26.4466 58.2097 26.0461 57.9144 25.7508L53.461 21.2982C53.1613 21.0117 52.7623 20.8521 52.3475 20.8521C51.9329 20.8521 51.5339 21.0117 51.2342 21.2982L51.2144 21.3187C49.0222 19.3193 46.3267 17.9552 43.4171 17.3731L42.4827 17.1867C42.1431 17.1205 41.8001 17.2838 41.6374 17.5888C41.4746 17.894 41.5301 18.2695 41.7741 18.5148L47.897 24.6378V24.6375C47.6027 24.932 47.4374 25.3307 47.4363 25.7469C47.4355 26.163 47.5993 26.5628 47.8923 26.8584L40.0856 34.5144L33.8549 28.2836C34.5109 27.0086 34.7471 25.5589 34.5296 24.1417C34.3125 22.7242 33.6528 21.412 32.645 20.392C31.9004 19.6558 30.9984 19.0982 30.007 18.7618L25.5838 17.2896C25.1668 17.1498 24.7192 17.1297 24.2913 17.2316C23.8637 17.3334 23.4731 17.5532 23.164 17.8659L22.739 18.2909H22.7387C22.4314 18.5985 22.4314 19.0967 22.7387 19.4039L27.1942 23.8516L27.1944 23.8519C27.3424 23.9995 27.4257 24.2 27.4257 24.4092C27.4257 24.6183 27.3424 24.8188 27.1944 24.9664L24.9642 27.1943C24.652 27.4904 24.1624 27.4904 23.8504 27.1943L19.4028 22.7388L19.4025 22.7386C19.2554 22.5915 19.0559 22.5084 18.8476 22.5081C18.639 22.5081 18.4387 22.5909 18.2911 22.7386L17.8661 23.1636V23.1638C17.5536 23.4727 17.3338 23.8633 17.2319 24.2909C17.1301 24.7185 17.1502 25.1659 17.2898 25.5828L18.7642 30.0133V30.0131C19.1009 31.0029 19.6582 31.9034 20.3936 32.6464C21.4142 33.6529 22.7264 34.3115 24.1434 34.5282C25.5603 34.7446 27.0092 34.5081 28.2837 33.8524L34.4608 40.0295L17.4068 56.7561C17.2568 56.9033 17.1719 57.1043 17.1708 57.3142C17.1698 57.5243 17.2528 57.7262 17.4013 57.8746L22.1245 62.5978V62.5981C22.2721 62.7457 22.4724 62.8285 22.6813 62.8285H22.6953C22.9086 62.8246 23.1112 62.7343 23.2565 62.5783L39.5372 45.1063L46.1497 51.7188C45.238 53.4714 45.1388 55.5352 45.8784 57.367C46.618 59.199 48.1221 60.6155 49.9953 61.2438L54.4192 62.7167C54.6604 62.7967 54.913 62.8376 55.1672 62.8381C55.7948 62.8365 56.3964 62.5852 56.8382 62.1396L57.2632 61.7146H57.2635C57.4111 61.567 57.4942 61.3667 57.4942 61.1576C57.4942 60.9487 57.4111 60.7485 57.2635 60.6008L52.8088 56.154L52.8086 56.1537C52.6606 56.006 52.5773 55.8055 52.5773 55.5964C52.5773 55.3873 52.6606 55.1868 52.8086 55.0391L55.0364 52.812C55.1841 52.6644 55.3844 52.5813 55.5935 52.5813C55.8023 52.5813 56.0026 52.6644 56.1502 52.812L60.5979 57.2675L60.5982 57.2678C60.7458 57.4154 60.9461 57.4985 61.1549 57.4985C61.3638 57.4985 61.5643 57.4154 61.712 57.2678L62.137 56.8428V56.8425C62.45 56.5324 62.6698 56.1404 62.7711 55.7115C62.8724 55.2826 62.8513 54.8339 62.7102 54.4164L62.7103 54.4167ZM61.2541 31.318L57.9147 34.6582L56.8007 33.5452L60.1408 30.205L61.2541 31.318ZM56.8009 31.318L55.6879 30.2042L56.8009 29.0912L57.9147 30.2042L56.8009 31.318ZM56.8009 26.8649L53.4606 30.205L49.0075 25.7519L52.3483 22.4126L56.8009 26.8649ZM44.8636 19.3809C46.8029 20.0226 48.5878 21.0601 50.1055 22.4272L49.0035 23.5246L44.8636 19.3809ZM27.9829 32.2069C26.9871 32.8467 25.803 33.1285 24.6257 33.0058C23.4486 32.8829 22.3481 32.3631 21.5056 31.5316C20.9415 30.9605 20.5139 30.2691 20.2556 29.5092L18.7835 25.0853V25.085C18.71 24.8639 18.7387 24.6215 18.8624 24.4238L22.7394 28.3072H22.7392C23.1894 28.7363 23.7877 28.9759 24.4098 28.9759C25.0317 28.9759 25.6299 28.7363 26.0801 28.3072L28.308 26.0793C28.7515 25.6363 29.0007 25.0353 29.0007 24.4085C29.0007 23.7817 28.7515 23.1806 28.308 22.7377L24.4239 18.8624C24.6218 18.7395 24.864 18.7109 25.0851 18.7835L29.5035 20.2541H29.5038C30.2653 20.5122 30.9582 20.9395 31.5308 21.5041C32.3626 22.3466 32.8829 23.4473 33.0058 24.6249C33.1288 25.8025 32.847 26.9869 32.2069 27.9827C32.0046 28.2947 32.0478 28.7057 32.3108 28.9684L35.0062 31.6637C34.1572 31.7713 33.3682 32.158 32.7632 32.7629C32.158 33.3681 31.7712 34.1572 31.6637 35.0061L28.9684 32.3108C28.7056 32.0478 28.2947 32.0046 27.9829 32.2069ZM33.8751 37.2173V37.2176C33.2957 36.6176 33.0757 35.7566 33.2962 34.9524C33.5166 34.148 34.1449 33.5199 34.9494 33.2993C35.7535 33.0787 36.6145 33.2988 37.2145 33.8782L38.9567 35.6204L35.5812 38.9305L33.8751 37.2173ZM22.6611 60.9093L19.0763 57.3242L49.0023 27.9728L51.2536 30.2242L22.6611 60.9093ZM43.8371 40.494L46.1254 42.7822C46.722 43.3788 46.9551 44.2486 46.7369 45.0638C46.5184 45.8786 45.8817 46.5153 45.0668 46.7338C44.2517 46.9521 43.3819 46.719 42.7853 46.1224L40.6149 43.952L43.8371 40.494ZM61.1371 55.5753L57.2601 51.6928H57.2603C56.8174 51.2495 56.2163 51.0006 55.5897 51.0006C54.9631 51.0006 54.3621 51.2495 53.9194 51.6928L51.6907 53.9206C51.2483 54.3641 51.0001 54.9649 51.0001 55.5914C51.0001 56.2177 51.2483 56.8185 51.6907 57.2622L55.5725 61.1386V61.1383C55.3746 61.2612 55.1324 61.2899 54.9111 61.217L50.4941 59.7472V59.7474C49.7303 59.4888 49.0361 59.0578 48.4655 58.4877C47.6332 57.6474 47.1123 56.5481 46.9894 55.3716C46.8665 54.1953 47.1488 53.0122 47.7894 52.0177C47.9915 51.7062 47.9485 51.2958 47.6863 51.033L44.9909 48.3377H44.9907C45.8396 48.2301 46.629 47.8434 47.2339 47.2382C47.8391 46.6333 48.2258 45.8442 48.3331 44.995L51.0287 47.6906C51.2914 47.9529 51.7019 47.9958 52.0134 47.7937C53.3571 46.9245 55.0266 46.7247 56.5373 47.2521C58.048 47.7794 59.2305 48.975 59.7414 50.4914L61.2136 54.9153L61.2133 54.9156C61.2873 55.1357 61.2594 55.3776 61.137 55.5752L61.1371 55.5753Z" fill="white"/>
    </svg>
    