<svg width="35" height="35" viewBox="0 0 35 35" fill="none" xmlns="http://www.w3.org/2000/svg">
<rect width="35" height="35" rx="10" fill="white"/>
<path d="M26.1797 12.8815C26.1885 13.0839 26.1885 13.2771 26.1885 13.4795C26.1974 19.616 21.689 26.7 13.4442 26.7C11.0125 26.7 8.62511 25.9732 6.57501 24.6116C6.93001 24.6576 7.285 24.676 7.64 24.676C9.6546 24.676 11.616 23.9768 13.2046 22.6796C11.2876 22.6428 9.60135 21.3456 9.01561 19.4504C9.6901 19.5884 10.3823 19.5608 11.0391 19.3676C8.95348 18.9444 7.45363 17.04 7.44475 14.8228C7.44475 14.8044 7.44475 14.786 7.44475 14.7676C8.06599 15.1264 8.76711 15.3288 9.4771 15.3472C7.51575 13.9855 6.90338 11.2715 8.09262 9.14633C10.3735 12.0535 13.7282 13.8107 17.3314 14.0039C16.9675 12.3939 17.4645 10.7011 18.6271 9.56033C20.4287 7.80313 23.2687 7.89513 24.9727 9.76273C25.9755 9.56033 26.9429 9.17393 27.8215 8.63113C27.4843 9.70753 26.7832 10.6183 25.8513 11.1979C26.7388 11.0875 27.6085 10.8391 28.425 10.4711C27.8215 11.4095 27.0583 12.2191 26.1797 12.8815Z" fill="#26225E"/>
</svg>
