<svg width="14" height="11" viewBox="0 0 14 11" fill="none" xmlns="http://www.w3.org/2000/svg">
<path fill-rule="evenodd" clip-rule="evenodd" d="M9.10693 5.53317C9.10693 6.62441 8.16294 7.50879 6.99893 7.50879C5.83493 7.50879 4.8916 6.62441 4.8916 5.53317C4.8916 4.44129 5.83493 3.55692 6.99893 3.55692C8.16294 3.55692 9.10693 4.44129 9.10693 5.53317Z" stroke="#8C898A" stroke-linecap="round" stroke-linejoin="round"/>
<path fill-rule="evenodd" clip-rule="evenodd" d="M6.99834 10.0968C9.15525 10.0968 11.1558 8.86152 12.5104 6.74054C12.9803 6.00483 12.9803 5.06126 12.5104 4.32556C11.1558 2.20458 9.15525 0.969299 6.99834 0.969299H7.00101C4.8441 0.969299 2.84359 2.20458 1.48891 4.32556C1.01901 5.06127 1.01901 6.00483 1.48891 6.74054C2.84359 8.86152 4.8441 10.0968 7.00101 10.0968H6.99834Z" stroke="#8C898A" stroke-linecap="round" stroke-linejoin="round"/>
</svg>
