<svg width="80" height="80" viewBox="0 0 80 80" fill="none" xmlns="http://www.w3.org/2000/svg">
    <path d="M80 39.9998C80 54.2905 72.376 67.4958 60 74.6412C47.624 81.7865 32.376 81.7865 20 74.6412C7.624 67.4958 0 54.2905 0 39.9998C0 25.7092 7.624 12.5038 20 5.35851C32.376 -1.78682 47.624 -1.78682 60 5.35851C72.376 12.5038 80 25.7092 80 39.9998Z" fill="#26215D"/>
    <path d="M17.1713 63.616H62.8286C63.2635 63.616 63.6159 63.2637 63.6159 62.8287C63.6159 62.3941 63.2635 62.0415 62.8286 62.0415H60.4671V43.9361H61.5377C61.9013 43.9369 62.245 43.7702 62.4695 43.4843C62.6941 43.1984 62.7742 42.8249 62.687 42.4718L59.7349 30.6638C59.6716 30.4073 59.5237 30.1791 59.3154 30.0166C59.1071 29.8539 58.85 29.7659 58.5857 29.7664H42.7551L40.9444 27.3497H40.9447C40.8983 27.289 40.8454 27.2336 40.7871 27.1844V24.256H52.4931L50.3913 21.1073L52.4931 17.9586L40.7871 17.9584V17.1714C40.7871 16.7365 40.4347 16.3841 39.9998 16.3841C39.5652 16.3841 39.2128 16.7364 39.2128 17.1714V27.1927C39.1545 27.2419 39.1016 27.2971 39.0553 27.3578L37.2446 29.7667H21.4139C21.1496 29.7661 20.8926 29.8542 20.6843 30.0169C20.4757 30.1794 20.328 30.4076 20.2645 30.6641L17.3124 42.4721H17.3127C17.2254 42.8252 17.3056 43.1986 17.5301 43.4846C17.7546 43.7705 18.0983 43.9372 18.4619 43.9364H19.5325V62.0418H17.1711C16.7362 62.0418 16.3838 62.3944 16.3838 62.829C16.3838 63.2639 16.7361 63.6163 17.1711 63.6163L17.1713 63.616ZM49.5486 19.5327L48.5015 21.1071L49.5483 22.6816H40.787V19.5327H49.5486ZM36.8513 62.0413V54.1693H39.213V62.0413H36.8513ZM43.1489 52.5947H36.8513V51.0202H43.1489V52.5947ZM40.7872 62.0413V54.1693H43.1489V62.0413H40.7872ZM58.2792 31.3407L61.0344 42.3613H52.2024L43.9371 31.3407H58.2792ZM18.9665 42.3613L21.7217 31.3407H36.0644L27.7991 42.3613H18.9665ZM21.1077 43.9358H27.9957C28.367 43.9345 28.7165 43.7598 28.9402 43.4634L40.0002 28.7194L51.0209 43.4634C51.2448 43.7598 51.5943 43.9345 51.9657 43.9358H58.893V62.0411H44.7237V50.3118C44.7237 50.0821 44.6323 49.8618 44.47 49.6996C44.3075 49.5371 44.0872 49.4459 43.8575 49.4459H36.1429C35.9134 49.4459 35.6931 49.5371 35.5306 49.6996C35.3684 49.8618 35.277 50.0821 35.277 50.3118V62.0411H21.1076L21.1077 43.9358Z" fill="white"/>
    <path d="M40 47.872C41.6704 47.872 43.2722 47.2085 44.4532 46.0275C45.6342 44.8465 46.2977 43.2447 46.2977 41.5743C46.2977 39.904 45.6342 38.3022 44.4532 37.1212C43.2722 35.9402 41.6704 35.2767 40 35.2767C38.33 35.2767 36.7282 35.9402 35.5472 37.1212C34.3659 38.3022 33.7026 39.904 33.7026 41.5743C33.7026 43.2447 34.3659 44.8465 35.5472 46.0275C36.7282 47.2085 38.33 47.872 40 47.872ZM40 36.8513C41.2529 36.8513 42.4542 37.349 43.3399 38.2347C44.2258 39.1206 44.7235 40.3219 44.7235 41.5745C44.7235 42.8271 44.2259 44.0287 43.3399 44.9144C42.4542 45.8001 41.2529 46.2977 40 46.2977C38.7474 46.2977 37.5461 45.8001 36.6604 44.9144C35.7745 44.0287 35.2768 42.8271 35.2768 41.5745C35.2768 40.3219 35.7745 39.1206 36.6604 38.2347C37.5461 37.349 38.7474 36.8513 40 36.8513Z" fill="white"/>
    <path d="M43.1489 41.5747C43.1489 41.3658 43.0658 41.1658 42.9181 41.0182C42.7707 40.8705 42.5705 40.7874 42.3616 40.7874H40.7872V39.2132C40.7872 38.7783 40.4348 38.426 39.9999 38.426C39.5653 38.426 39.2129 38.7783 39.2129 39.2132V42.3619H42.3616C42.5704 42.3619 42.7707 42.2791 42.9181 42.1314C43.0657 41.9838 43.1489 41.7835 43.1489 41.5747Z" fill="white"/>
    <path d="M26.2238 45.5107H23.8621H23.8623C23.5491 45.5107 23.2488 45.6352 23.0275 45.8565C22.8059 46.0781 22.6816 46.3784 22.6816 46.6917V49.8403C22.6816 50.1536 22.8059 50.4539 23.0275 50.6752C23.2488 50.8968 23.5491 51.021 23.8623 51.021H26.2241H26.2238C26.5371 51.021 26.8374 50.8968 27.0589 50.6752C27.2803 50.4538 27.4048 50.1536 27.4048 49.8403V46.6917C27.4048 46.3784 27.2803 46.0781 27.0589 45.8565C26.8373 45.6352 26.5371 45.5107 26.2238 45.5107ZM25.8303 49.4469H24.2559V47.0851H25.8303V49.4469Z" fill="white"/>
    <path d="M32.5214 45.5107H30.1597H30.16C29.8467 45.5107 29.5464 45.6352 29.3248 45.8565C29.1035 46.0781 28.979 46.3784 28.979 46.6917V49.8403C28.979 50.1536 29.1035 50.4539 29.3248 50.6752C29.5465 50.8968 29.8467 51.021 30.16 51.021H32.5217H32.5214C32.8347 51.021 33.135 50.8968 33.3566 50.6752C33.5779 50.4538 33.7024 50.1536 33.7024 49.8403V46.6917C33.7024 46.3784 33.5779 46.0781 33.3566 45.8565C33.135 45.6352 32.8347 45.5107 32.5214 45.5107ZM32.128 49.4469H30.5535V47.0851H32.128V49.4469Z" fill="white"/>
    <path d="M26.2238 52.5953H23.8621H23.8623C23.5491 52.5953 23.2488 52.7198 23.0275 52.9412C22.8059 53.1628 22.6816 53.463 22.6816 53.776V56.925C22.6816 57.238 22.8059 57.5385 23.0275 57.7598C23.2488 57.9812 23.5491 58.1057 23.8623 58.1057H26.2241H26.2238C26.5371 58.1057 26.8374 57.9812 27.0589 57.7598C27.2803 57.5385 27.4048 57.238 27.4048 56.925V53.776C27.4048 53.463 27.2803 53.1628 27.0589 52.9412C26.8373 52.7198 26.5371 52.5953 26.2238 52.5953ZM25.8303 56.5313H24.2559V54.1698H25.8303V56.5313Z" fill="white"/>
    <path d="M32.5214 52.5953H30.1597H30.16C29.8467 52.5953 29.5464 52.7198 29.3248 52.9412C29.1035 53.1628 28.979 53.463 28.979 53.776V56.925C28.979 57.238 29.1035 57.5385 29.3248 57.7598C29.5465 57.9812 29.8467 58.1057 30.16 58.1057H32.5217H32.5214C32.8347 58.1057 33.135 57.9812 33.3566 57.7598C33.5779 57.5385 33.7024 57.238 33.7024 56.925V53.776C33.7024 53.463 33.5779 53.1628 33.3566 52.9412C33.135 52.7198 32.8347 52.5953 32.5214 52.5953ZM32.128 56.5313H30.5535V54.1698H32.128V56.5313Z" fill="white"/>
    <path d="M46.2974 49.84C46.2974 50.1533 46.4218 50.4535 46.6432 50.6749C46.8648 50.8965 47.1651 51.0207 47.4783 51.0207H49.8401H49.8398C50.1531 51.0207 50.4533 50.8965 50.6747 50.6749C50.8963 50.4535 51.0205 50.1533 51.0205 49.84V46.6913C51.0205 46.3781 50.8963 46.0778 50.6747 45.8562C50.4533 45.6349 50.1531 45.5104 49.8398 45.5104H47.4781H47.4783C47.165 45.5104 46.8648 45.6349 46.6432 45.8562C46.4218 46.0778 46.2974 46.3781 46.2974 46.6913V49.84ZM47.8718 47.0848H49.4463V49.4465H47.8718V47.0848Z" fill="white"/>
    <path d="M53.7759 51.0207H56.1376C56.4509 51.0207 56.7512 50.8965 56.9725 50.6749C57.1941 50.4535 57.3183 50.1533 57.3183 49.84V46.6913C57.3183 46.3781 57.1941 46.0778 56.9725 45.8562C56.7512 45.6349 56.4509 45.5104 56.1376 45.5104H53.7759C53.4629 45.5104 53.1626 45.6349 52.941 45.8562C52.7197 46.0778 52.5952 46.3781 52.5952 46.6913V49.84C52.5952 50.1533 52.7197 50.4535 52.941 50.6749C53.1627 50.8965 53.4629 51.0207 53.7759 51.0207ZM54.1694 47.0848H55.7439V49.4465H54.1697L54.1694 47.0848Z" fill="white"/>
    <path d="M49.8398 52.5953H47.4781H47.4783C47.1651 52.5953 46.8648 52.7198 46.6432 52.9412C46.4218 53.1628 46.2974 53.463 46.2974 53.776V56.925C46.2974 57.238 46.4218 57.5385 46.6432 57.7598C46.8648 57.9812 47.1651 58.1057 47.4783 58.1057H49.8401H49.8398C50.1531 58.1057 50.4533 57.9812 50.6747 57.7598C50.8963 57.5385 51.0205 57.238 51.0205 56.925V53.776C51.0205 53.463 50.8963 53.1628 50.6747 52.9412C50.4533 52.7198 50.1531 52.5953 49.8398 52.5953ZM49.4463 56.5313H47.8719V54.1698H49.4463V56.5313Z" fill="white"/>
    <path d="M53.7759 58.106H56.1376C56.4509 58.106 56.7512 57.9816 56.9725 57.7602C57.1941 57.5389 57.3183 57.2383 57.3183 56.9253V53.7764C57.3183 53.4634 57.1941 53.1631 56.9725 52.9415C56.7512 52.7202 56.4509 52.5957 56.1376 52.5957H53.7759C53.4629 52.5957 53.1626 52.7202 52.941 52.9415C52.7197 53.1631 52.5952 53.4634 52.5952 53.7764V56.9253C52.5952 57.2384 52.7197 57.5389 52.941 57.7602C53.1627 57.9816 53.4629 58.106 53.7759 58.106ZM54.1694 54.1701H55.7439V56.5318L54.1697 56.5316L54.1694 54.1701Z" fill="white"/>
    </svg>
    