<svg width="35" height="35" viewBox="0 0 35 35" fill="none" xmlns="http://www.w3.org/2000/svg">
<rect width="35" height="35" rx="10" fill="white"/>
<path d="M28.5263 11.9698C28.261 10.9846 27.4843 10.2078 26.4991 9.9426C24.6993 9.45001 17.5 9.45001 17.5 9.45001C17.5 9.45001 10.3006 9.45001 8.50081 9.92365C7.53459 10.1889 6.73888 10.9846 6.47364 11.9698C6 13.7696 6 17.5019 6 17.5019C6 17.5019 6 21.2531 6.47364 23.034C6.73888 24.0191 7.51564 24.7959 8.50081 25.0611C10.3196 25.5537 17.5 25.5537 17.5 25.5537C17.5 25.5537 24.6993 25.5537 26.4991 25.0801C27.4843 24.8149 28.261 24.0381 28.5263 23.0529C28.9999 21.2531 28.9999 17.5208 28.9999 17.5208C28.9999 17.5208 29.0188 13.7696 28.5263 11.9698Z" fill="#26225E"/>
<path d="M15.2076 20.95L21.1943 17.5019L15.2076 14.0538V20.95Z" fill="white"/>
</svg>
